<svg id="scavecgraphSVG" xmlns:symbology="http:www.scavecgraph.net" xmlns="http://www.w3.org/2000/svg" xmlns:xlink="http://www.w3.org/1999/xlink" contentScriptType="text/ecmascript" contentStyleType="text/css" preserveAspectRatio="xMidYMid meet" version="1.0" zoomAndPan="magnify">  
    <g data-scale="1.0" id="root" transform="scale(1.0) ">        
        <path d="M41.73 268.13 C39.87 266.28 36.85 266.29 35 268.14 C34.18 268.96 33.71 270.02 33.62 271.1 L33.69 272.06 C33.92 272.93 33.64 273.85 32.91 274.36 C32.11 274.92 31.03 274.81 30.28 274.16 L30.04 273.91 C30.02 273.89 29.99 273.87 29.97 273.85 L29.97 273.84 L29.97 273.84 L23.1 266.97 C22.39 266.26 21.21 266.25 20.48 266.97 L13.8 273.66 L13.82 273.67 L13.82 273.67 C13.79 273.68 13.76 273.71 13.73 273.73 L13.73 273.73 L13.49 273.97 L13.5 273.97 C12.85 274.72 12.73 275.81 13.3 276.6 C13.36 276.7 13.43 276.78 13.52 276.87 C14.05 277.4 14.83 277.59 15.58 277.39 L16.56 277.32 C17.63 277.42 18.7 277.87 19.52 278.7 C21.38 280.55 21.37 283.55 19.52 285.41 C17.66 287.27 14.66 287.27 12.8 285.41 C11.98 284.59 11.53 283.53 11.43 282.45 L11.5 281.48 C11.69 280.73 11.51 279.93 10.98 279.4 C10.9 279.32 10.8 279.26 10.72 279.18 C9.91 278.63 8.83 278.74 8.07 279.38 L8.07 279.38 L7.83 279.62 L7.84 279.63 C7.83 279.64 7.82 279.65 7.81 279.67 L7.8 279.66 L0.71 286.74 C-0.01 287.47 0.01 288.64 0.72 289.35 L7.59 296.22 L7.59 296.22 L7.59 296.23 C7.61 296.25 7.64 296.27 7.66 296.29 L7.9 296.54 C8.65 297.19 9.72 297.31 10.52 296.75 C11.25 296.23 11.53 295.31 11.31 294.45 L11.24 293.48 C11.33 292.4 11.79 291.35 12.62 290.52 C14.47 288.67 17.49 288.67 19.34 290.52 C21.19 292.37 21.19 295.38 19.34 297.24 C18.5 298.07 17.46 298.52 16.38 298.62 L15.41 298.55 C14.54 298.33 13.62 298.6 13.11 299.34 C12.55 300.14 12.67 301.2 13.32 301.95 L13.56 302.19 C13.57 302.2 13.58 302.22 13.6 302.23 L13.6 302.23 L20.49 309.12 C21.22 309.85 22.38 309.85 23.1 309.13 L30.19 302.05 L30.19 302.05 C30.2 302.03 30.21 302.02 30.22 302.01 L30.22 302.01 L30.46 301.77 L30.46 301.77 C31.22 301.13 32.29 301.01 33.1 301.56 C33.19 301.64 33.28 301.71 33.36 301.78 C33.89 302.31 34.08 303.11 33.88 303.86 L33.81 304.83 C33.9 305.91 34.36 306.97 35.18 307.79 C37.04 309.65 40.04 309.65 41.9 307.79 C43.75 305.93 43.76 302.94 41.9 301.08 C41.08 300.25 40.01 299.8 38.93 299.71 L37.97 299.78 C37.22 299.97 36.43 299.78 35.9 299.25 C35.82 299.17 35.75 299.08 35.68 298.98 C35.11 298.19 35.23 297.11 35.88 296.35 L35.88 296.35 L36.12 296.11 L36.12 296.11 C36.14 296.09 36.17 296.07 36.2 296.06 L36.2 296.06 L36.19 296.04 L42.87 289.36 C43.59 288.64 43.6 287.47 42.87 286.74 L35.98 279.85 L35.98 279.85 C35.96 279.84 35.95 279.82 35.94 279.81 L35.7 279.57 C35.05 278.82 34.94 277.75 35.5 276.95 C36.01 276.22 36.93 275.94 37.79 276.17 L38.76 276.24 C39.84 276.14 40.9 275.68 41.72 274.86 C43.57 273 43.58 269.99 41.73 268.13 Z " fill="#0178af" fill-opacity="1.0" id="elb2bf1a46" stroke="#ffffff" stroke-opacity="1.0" stroke-width="0" symbology:group="0" symbology:type="ShapedSymbol"/>
        <path d="M197.48 0 C195.68 0 193.92 0.16 192.39 0.35 L192.39 0.35 C182.12 0.75 168.01 3.92 153.12 9.61 C129.37 18.71 111.45 31.35 109.23 39.91 L109.23 39.91 L104.56 47.39 L103.87 47.75 L103.87 47.75 C102.02 49.62 98.12 52.01 93.38 54.1 C91.41 54.98 89.53 55.75 87.78 56.26 L87.78 56.26 L87.02 56.69 L87.02 56.69 C86.66 56.71 86.25 56.78 85.88 56.87 L85.88 56.87 C84.25 57.3 82.85 57.57 81.74 57.62 L81.74 57.62 L61.75 61.53 C52.5 63.32 45.39 67.55 45.25 71.24 L45.25 71.24 C45.19 71.8 45.21 72.31 45.39 72.91 L48.32 81.49 L48.32 81.49 C48.82 82.35 49.19 83.38 49.41 84.56 L49.41 84.56 L49.73 85.52 L49.73 85.52 L49.57 85.88 L49.57 85.88 C49.59 86.17 49.59 86.48 49.59 86.74 C49.59 90.67 47.87 93.87 45.62 94.28 L45.62 94.28 L34.91 99.74 C32.82 100.84 31.77 103.16 32.3 105.38 L32.3 105.38 L31.46 111.39 L31.46 111.39 L26.6 112.24 L26.6 112.24 C26.36 112.24 26.14 112.28 25.9 112.34 L25.9 112.34 L25.06 112.52 C23.88 112.71 23.05 113.84 23.3 115.09 L23.32 115.3 L23.32 115.3 L20.39 125.44 L20.39 125.44 L5.56 138.37 C4.08 139.64 3.04 141.14 2.5 142.64 L2.5 142.64 C0.08 147.14 0.77 152.84 4.58 156.62 L70.07 222.12 L70.07 222.12 L70.39 222.86 L70.39 222.86 C71.8 224.59 73.17 227.03 74.41 229.75 C75.59 232.48 76.46 235.12 76.87 237.31 L76.87 237.31 L77.37 238.42 L77.37 238.42 C77.34 238.72 77.34 238.98 77.34 239.28 L77.34 250 C77.34 257.75 83.59 264 91.35 264 L196 264 C203.73 264 210.04 257.75 210.04 250 L210.04 239.28 C210.04 231.98 204.48 225.97 197.4 225.31 L197.4 225.31 L191.48 231.37 C189.09 233.92 185.81 235.2 182.59 235.2 C179.5 235.2 176.39 234.01 173.95 231.73 L172.4 230.2 C171.22 229.09 170.34 227.78 169.7 226.45 L169.7 226.45 C169.58 226.23 169.42 225.97 169.28 225.73 L166.4 220.98 C164.12 217.15 165.37 212.14 169.2 209.87 L177.61 204.79 L177.61 204.79 L177.56 204.76 L177.56 204.76 C178.22 204.26 178.56 203.73 178.45 203.28 C178.45 203.18 178.39 203.08 178.37 203 L178.37 203 C178.37 203 178.37 202.98 178.37 202.98 C178.65 202.31 177.2 200.81 174.56 199.09 L174.56 199.09 C169.2 196.87 162.79 193.89 156.03 190.25 C140.95 182.25 129.26 174.12 127.7 170.73 L127.7 170.73 C127.39 170.48 127.09 170.23 126.92 169.87 C125.25 167.42 126.92 163.39 130.64 160.89 L138.56 155.56 L138.56 155.56 C141.67 152.37 141.86 147.26 138.79 143.89 L137.84 142.75 C136.15 140.9 133.84 139.95 131.53 139.95 C129.5 139.95 127.46 140.67 125.84 142.17 L125.59 142.36 L125.59 142.36 L120.02 150.92 C118.95 152.61 117.09 153.56 115.21 153.56 C114.38 153.56 113.53 153.37 112.71 152.98 L112.71 152.98 C111.98 152.61 111.13 152.12 110.31 151.42 L110.31 151.42 L109.59 151 C108.7 150.39 108.02 149.59 107.59 148.7 L107.59 148.7 C105.56 146.29 103.57 143 101.92 139.17 C101.13 137.28 100.52 135.45 100.03 133.64 L100.03 133.64 C99.94 133.47 99.85 133.23 99.81 133.03 L98.2 127.34 C97.03 123.32 99.32 119.13 103.39 117.94 L113 115.21 L113 115.21 C119.66 113 124.27 110.17 123.8 108.25 C123.74 108.2 123.74 108.09 123.67 107.95 L123.67 107.95 C123.62 107.59 123.42 107.24 123.13 106.82 L123.13 106.82 L120.07 104.56 L120.07 104.56 C120.02 104.48 119.98 104.48 119.89 104.42 L119.89 104.42 L119.89 104.37 L117.38 102.49 C117.14 102.31 116.96 102.16 116.84 101.92 L116.84 101.92 C116.67 101.84 116.53 101.73 116.41 101.64 C112.89 98.8 113.95 91.75 118.7 85.88 C121.45 82.44 124.94 80.19 127.99 79.42 L127.99 79.42 C129.03 78.98 130.11 78.74 131.14 78.74 C133.89 78.74 136.58 80.27 137.89 82.88 L139.29 85.66 L139.59 85.42 L139.59 85.42 C139.64 85.81 139.7 86.24 139.78 86.6 L139.78 86.6 L141.2 89.38 L141.2 89.38 C141.43 89.56 141.67 89.67 141.9 89.77 C142.09 89.84 142.36 89.91 142.59 89.91 C146.23 89.91 151.89 81.7 155.72 70.69 C155.84 70.27 156 69.84 156.14 69.45 L156.14 69.45 L156.67 68.92 L156.67 68.92 C162.14 56.26 167.67 46.28 172.06 41.12 L172.06 41.12 C172.7 40.12 173.53 39.25 174.48 38.59 L174.48 38.59 C175.56 37.71 176.58 37.19 177.42 37.19 C177.5 37.19 177.56 37.19 177.68 37.23 L177.68 37.23 C178.26 37.07 178.92 37.03 179.53 37.03 C183.43 37.03 186.73 39.48 188 42.98 L188 42.98 C188.09 42.98 188.17 43.01 188.18 43.01 L188.18 43.01 C189.5 46.03 192.51 48.09 196 48.09 C200.7 48.09 204.5 44.3 204.5 39.59 C204.5 36.05 202.34 33 199.31 31.77 L199.31 31.77 C193.39 30.66 189.22 28.05 189.4 25.3 C189.4 24.8 189.62 24.28 189.95 23.85 L189.95 23.85 C191.12 20.99 194.87 16.44 199.86 11.94 C203.37 8.78 206.83 6.27 209.58 4.7 L209.58 4.7 C209.89 4.39 210.04 4.08 210.04 3.74 C210.04 1.67 204.45 0 197.48 0 Z " fill="#0178af" fill-opacity="1.0" id="elf6d1d7a2" stroke="#ffffff" stroke-opacity="1.0" stroke-width="0" symbology:group="0" symbology:type="ShapedSymbol"/>
        <path d="M63.15 291.6 Q63.15 294.15 61.17 295.64 Q59.19 297.13 56.47 297.13 Q54.58 297.13 50.85 296.27 Q50.82 295.65 50.82 294.3 Q50.82 292.96 51.08 290.55 Q51.9 290.55 52.96 290.72 Q52.96 290.83 52.96 290.97 Q52.96 295.07 56.61 295.07 Q57.82 295.07 58.5 294.55 Q59.19 294.04 59.19 293.07 Q59.19 292.1 58.58 291.34 Q57.96 290.58 57.02 290.11 Q56.08 289.63 55 289.01 Q53.91 288.4 52.97 287.74 Q52.04 287.08 51.42 285.93 Q50.8 284.79 50.8 283.27 Q50.8 280.85 52.58 279.5 Q54.35 278.15 56.87 278.15 Q59.4 278.15 62.19 278.96 Q62.19 281.07 61.8 283.86 Q61.05 283.86 60.35 283.79 Q59.85 280.11 57.15 280.11 Q56.04 280.11 55.28 280.65 Q54.52 281.18 54.52 282.1 Q54.52 283.02 55.16 283.76 Q55.8 284.5 56.75 284.97 Q57.71 285.43 58.83 286.03 Q59.96 286.63 60.91 287.26 Q61.86 287.9 62.5 289.01 Q63.15 290.13 63.15 291.6 Z M70.83 297.11 Q68.46 297.11 66.57 295.42 Q64.68 293.72 64.68 290.54 Q64.68 287.36 66.82 285.42 Q68.96 283.47 72.02 283.47 Q73.86 283.47 75.68 284.25 Q75.65 285.74 75.24 288.32 Q74.71 288.32 74.19 288.18 Q74.05 286.94 73.43 286.25 Q72.82 285.55 71.93 285.55 Q69.3 285.55 69.3 290.01 Q69.3 294.47 72.13 294.47 Q73.63 294.47 75.71 293.66 L76.35 294.68 Q75.29 295.77 73.82 296.44 Q72.35 297.11 70.83 297.11 Z M82.3 293.1 Q82.3 293.72 82.62 294.1 Q82.94 294.47 83.63 294.47 Q84.32 294.47 84.88 293.8 L84.88 290.72 L84.08 290.97 Q82.3 291.54 82.3 293.1 Z M90.01 296.66 Q89.3 297.11 88.23 297.11 Q87.16 297.11 86.25 296.68 Q85.35 296.24 85.02 295.49 Q83.72 297.11 81.78 297.11 Q79.83 297.11 78.75 296.09 Q77.68 295.07 77.68 293.47 Q77.68 290.55 81.6 289.77 L84.88 289.13 L84.88 288.29 Q84.88 286.47 82.74 286.47 Q81.21 286.47 79.52 287.04 L78.63 285.71 Q81.11 283.47 84.54 283.47 Q86.86 283.47 88.03 284.71 Q89.19 285.94 89.19 288.21 L89.19 293.16 Q89.19 294.54 90.05 294.54 Q90.19 294.54 91.08 294.36 L91.47 295.32 Q90.72 296.21 90.01 296.66 Z M90.9 285.38 Q90.75 284.79 90.75 284.43 Q90.75 284.07 90.79 283.83 L98.47 283.83 Q98.6 284.25 98.6 285.38 Q97.55 285.38 97.02 285.52 L99.71 294.57 Q99.88 293.58 100.47 291.85 L102.04 287.19 Q102.21 286.66 102.21 286.36 Q102.21 286.05 102.11 285.91 Q101.9 285.52 101.04 285.38 Q100.86 284.82 100.86 284.43 Q100.86 284.04 100.9 283.83 L106.94 283.83 Q106.96 284.61 106.6 285.38 Q105.68 285.38 104.97 285.69 L100.44 296.91 L96.72 296.91 L92.82 287.05 Q92.57 286.27 92.16 285.92 Q91.75 285.57 90.9 285.38 Z M113.57 285.55 Q111.8 285.55 111.38 288.6 L113.57 288.43 L114.82 288.38 Q114.8 285.55 113.57 285.55 Z M111.3 290.11 L111.3 290.16 Q111.3 294.5 114.55 294.5 Q116.25 294.5 118.44 293.66 L119.08 294.68 Q116.71 297.11 113.32 297.11 Q110.99 297.11 108.94 295.54 Q107.94 294.79 107.31 293.5 Q106.68 292.21 106.68 290.61 Q106.68 287.36 108.78 285.42 Q110.88 283.47 113.9 283.47 Q115.91 283.47 117.43 284.6 Q119.16 285.85 119.16 288.96 Q118.94 289.63 118.6 290.11 L111.3 290.11 Z M126.83 297.11 Q124.46 297.11 122.57 295.42 Q120.68 293.72 120.68 290.54 Q120.68 287.36 122.82 285.42 Q124.96 283.47 128.02 283.47 Q129.86 283.47 131.68 284.25 Q131.65 285.74 131.24 288.32 Q130.71 288.32 130.19 288.18 Q130.05 286.94 129.43 286.25 Q128.82 285.55 127.93 285.55 Q125.3 285.55 125.3 290.01 Q125.3 294.47 128.13 294.47 Q129.63 294.47 131.71 293.66 L132.35 294.68 Q131.29 295.77 129.82 296.44 Q128.35 297.11 126.83 297.11 Z M138.94 287.44 Q138.94 290.8 140.47 290.8 Q141.82 290.8 141.8 287.86 Q141.71 284.96 140.25 284.96 Q138.94 284.96 138.94 287.44 Z M143.5 297.27 L138.19 297.27 Q137.85 297.27 137.24 297.22 Q136.75 297.86 136.75 298.61 Q136.75 300.47 140.46 300.47 Q142.49 300.47 143.63 299.83 Q144.77 299.18 144.77 298.35 Q144.77 297.27 143.5 297.27 Z M138.19 293.94 L143.72 293.94 Q147.43 293.94 147.43 296.94 Q147.43 299.6 145.03 301.7 Q142.63 303.8 139.08 303.8 Q136.65 303.8 135.12 302.78 Q133.6 301.75 133.6 299.85 Q133.6 297.94 135.75 296.74 Q134.43 295.96 134.43 294.3 Q134.43 293.33 134.99 292.58 Q135.55 291.82 136.5 291.4 Q134.32 290.16 134.32 287.99 Q134.32 285.82 136.03 284.65 Q137.74 283.47 140.22 283.47 Q142.69 283.47 144.25 284.4 Q145.83 283.05 148.43 283.05 Q148.49 283.27 148.49 283.76 Q148.49 284.25 148.35 285.27 L145.63 285.6 Q146.36 286.55 146.36 287.86 Q146.36 289.91 144.67 291.11 Q142.97 292.32 140.36 292.32 Q138.99 292.32 137.85 291.99 Q137.1 292.38 137.1 293.05 Q137.1 293.44 137.4 293.69 Q137.71 293.94 138.19 293.94 Z M159.82 283.47 Q159.96 283.94 159.96 285.01 Q159.96 286.08 159.65 287.47 Q155.36 287.47 154.93 290.4 L154.93 294.65 Q155.93 295.04 157.33 295.15 Q157.33 295.32 157.33 295.71 Q157.33 296.1 157.22 296.74 L148.68 296.74 Q148.68 296.52 148.68 296.08 Q148.68 295.65 148.82 295.15 Q149.69 295 150.14 294.65 Q150.58 294.3 150.58 293.49 L150.58 286.27 Q150.16 286.22 149.67 286.22 Q149.18 286.22 148.71 286.24 Q148.75 285.27 148.96 284.71 Q151.5 283.79 154.54 283.61 Q154.86 285.55 154.93 287.54 Q155.6 285.74 156.9 284.61 Q158.19 283.47 159.82 283.47 Z M165.3 293.1 Q165.3 293.72 165.62 294.1 Q165.94 294.47 166.63 294.47 Q167.32 294.47 167.88 293.8 L167.88 290.72 L167.08 290.97 Q165.3 291.54 165.3 293.1 Z M173.01 296.66 Q172.3 297.11 171.23 297.11 Q170.16 297.11 169.25 296.68 Q168.35 296.24 168.02 295.49 Q166.72 297.11 164.78 297.11 Q162.83 297.11 161.75 296.09 Q160.68 295.07 160.68 293.47 Q160.68 290.55 164.6 289.77 L167.88 289.13 L167.88 288.29 Q167.88 286.47 165.74 286.47 Q164.21 286.47 162.52 287.04 L161.63 285.71 Q164.11 283.47 167.54 283.47 Q169.86 283.47 171.03 284.71 Q172.19 285.94 172.19 288.21 L172.19 293.16 Q172.19 294.54 173.05 294.54 Q173.19 294.54 174.08 294.36 L174.47 295.32 Q173.72 296.21 173.01 296.66 Z M180.8 294.75 Q181.57 295.15 182.63 295.15 Q183.69 295.15 184.47 293.93 Q185.25 292.71 185.25 290.22 Q185.25 287.72 184.56 286.79 Q183.86 285.85 183.04 285.85 Q182.21 285.85 181.59 286.58 Q180.97 287.3 180.8 288.4 L180.8 294.75 Z M176.44 300.19 L176.44 286.27 Q175.99 286.22 175.51 286.22 Q175.04 286.22 174.6 286.24 Q174.65 285.27 174.85 284.71 Q177.4 283.79 180.3 283.61 Q180.54 284.57 180.65 285.46 Q181.96 283.47 184.29 283.47 Q186.63 283.47 188.25 285.26 Q189.88 287.05 189.88 290.16 Q189.88 293.27 187.64 295.16 Q185.4 297.05 182.24 297.05 Q181.43 297.05 180.8 296.86 L180.8 301.25 Q181.88 301.79 183.3 301.85 Q183.33 302.04 183.33 302.41 Q183.33 302.79 183.19 303.44 L174.54 303.44 Q174.54 303.24 174.54 302.79 Q174.54 302.35 174.71 301.85 Q175.57 301.71 176 301.37 Q176.44 301.04 176.44 300.19 Z M206.6 287.9 L206.6 294.85 Q207.75 295.15 208.47 295.15 Q208.47 295.32 208.47 295.72 Q208.47 296.13 208.33 296.74 L200.75 296.74 Q200.72 296.52 200.72 296.13 Q200.72 295.74 200.86 295.15 Q201.58 295 201.92 294.67 Q202.25 294.33 202.25 293.49 L202.25 288.46 Q202.25 287.36 201.75 286.82 Q201.25 286.27 200.44 286.27 Q198.82 286.27 197.93 288.79 L197.93 294.86 Q198.6 295.15 199.49 295.15 Q199.49 295.32 199.49 295.71 Q199.49 296.1 199.38 296.74 L191.68 296.74 Q191.68 296.52 191.68 296.08 Q191.68 295.65 191.82 295.15 Q192.69 295 193.14 294.65 Q193.58 294.3 193.58 293.49 L193.58 279.24 Q193.27 279.19 192.77 279.19 Q192.27 279.19 191.71 279.22 Q191.75 278.21 191.96 277.65 Q194.65 276.69 197.93 276.58 L197.93 285.99 Q199.32 283.47 202.25 283.47 Q204.22 283.47 205.41 284.65 Q206.6 285.82 206.6 287.9 Z" fill="#0178af" fill-opacity="1.0" id="el54181de3" stroke="#ffffff" stroke-opacity="1.0" stroke-width="0" symbology:group="0" symbology:type="Halant-Bold.ttf"/>
        <text fill="#0178af" fill-opacity="1.0" font-family="serif" font-size="16" font-weight="bold" id="el95a34c3e" symbology:group="0" symbology:type="PlainText" x="50" y="324">Visualize</text>    <text fill="#0178af" fill-opacity="1.0" font-family="serif" font-size="16" font-weight="bold" id="eld44200d0" symbology:group="0" symbology:type="PlainText" x="114" y="324">Your</text>    <text fill="#0178af" fill-opacity="1.0" font-family="serif" font-size="16" font-weight="bold" id="elf7879598" symbology:group="0" symbology:type="PlainText" x="155" y="324">Domain</text>  
    </g>
</svg>
