<svg id="symbologySVG" width="100" height="80" xmlns="http://www.w3.org/2000/svg" xmlns:xlink="http://www.w3.org/1999/xlink" opacity="1.0" preserveAspectRatio="xMidYMid meet" version="1.0" zoomAndPan="magnify">  <desc>Generated by Symbology Studio</desc>  <defs/>
    <g id="root" transform="scale(0.09)">        
        <path fill="#5badf9" fill-opacity="1.0" id="el926f57b1" stroke="#ffffff" stroke-opacity="1.0" stroke-width="0" d="M847.22 0 L847.22 0 L847.22 0 L847.22 0 L847.22 0 L847.22 0 L847.22 0 L847.22 0 L847.22 0 L847.22 0 L847.22 0 L847.22 0 L847.22 0 L847.22 0 L847.22 0 L847.22 0 L847.22 0 L847.22 0 L839.73 1.9 Q797.29 6.49 766 20.54 Q632.22 74.45 619.29 235.2 Q624.66 485.46 880.35 499.49 Q1010.91 499.49 1065.91 430.46 Q1098.24 365.74 1056.19 351.71 Q1045.42 345.24 1017.35 359.25 Q933.22 401.33 859.85 356.02 Q813.47 327.99 825.31 262.18 Q840 272 867.41 281.58 Q1054.04 329.05 1080.98 158.59 Q1081.07 122.82 1075.61 110.06 Q1068.94 88.31 1053.45 70.02 Q1026.04 34.94 979.73 18.71 Q941.85 2.2 898.68 0  Z M240.65 0 L181.28 3.25 L149.98 5.41 Q59.37 10.79 27.89 29.91 Q12.25 38.5 4.37 65.1 Q-0.6 94.24 3.65 125.09 Q10.57 203.98 42.8 318.06 L53.07 346.24 L82.95 426.49 L99.75 463.83 L112.81 484.36 Q123.67 495.96 141.75 500.21 L162.28 500.21 L173.48 498.36 L194 489.02 Q214.75 470.53 227.59 444.21 Q252.37 399.28 279.02 366.43 Q296.4 348.46 319.05 360.24 Q338.3 376.49 348.93 401.28 Q370.78 443.3 407.99 484.84 Q428.46 500.96 447.24 500.84 Q476.75 500.84 490.74 485.25 Q507.55 466.59 515.93 439.55 L540.22 376.11 L549.54 349.99 L566.31 293.99 L593.36 169.39 Q609.55 98.2 595.54 62.6 Q581.5 16.21 467.15 6.49 L431.02 3.79 L366.62 1 L240.65 0  Z "/>
    </g>
</svg>