<svg id="symbologySVG" width="100" height="100" xmlns="http://www.w3.org/2000/svg" xmlns:xlink="http://www.w3.org/1999/xlink" opacity="1.0" preserveAspectRatio="xMidYMid meet" version="1.0" zoomAndPan="magnify">  
    <desc>Generated by Symbology Studio</desc>  
    <defs/>
    <g id="root" transform="scale(0.10)">        
        <path fill="#00832d" fill-opacity="1.0" stroke="#ffffff" stroke-opacity="1.0" stroke-width="0" d="M310.5 1 L305.5 2 L298.5 3 L287.5 6 L274 12.5 L398.5 229 L433 170.5 L524 12.5 Q508.5 1.5 482.5 1  Z "/>
        <path fill="#00ac47" fill-opacity="1.0" stroke="#ffffff" stroke-opacity="1.0" stroke-width="0" d="M272.5 13 L259.5 22 Q248.9 30.4 243 43.5 L233 59.5 L197 122.5 L71.5 340 L21.5 426 L9.5 447 Q0.62 461.61 0 484.5 L251.5 485 L399 229.5 L275 14.5 L272.5 13  Z "/>
        <path fill="#0066da" fill-opacity="1.0" stroke="#ffffff" stroke-opacity="1.0" stroke-width="0" d="M0.5 485 L0.5 493 L2 502.5 L5 513.5 L13 529.5 L31.5 562 L102 682.5 Q111.1 694.91 125.5 702 L251 485.5 L0.5 485  Z "/>
        <path fill="#2684fc" fill-opacity="1.0" stroke="#ffffff" stroke-opacity="1.0" stroke-width="0" d="M544.39 485.65 Q543.15 485.65 541.5 486 L251.5 486 L126 702.5 Q136.81 710.72 154 712.5 L161.5 713 L165.5 714 L625.5 714 L638.5 713 L644 712.5 L654.5 710 Q665 708 672 702.5 L548 487.5 Q547.17 485.65 544.39 485.65  Z "/>
        <path fill="#ea4335" fill-opacity="1.0" stroke="#ffffff" stroke-opacity="1.0" stroke-width="0" d="M547.5 485 L549 489.5 L555.5 501 L582 545.5 L672.5 702 L682.5 696 Q695.1 686.6 702.5 672 L740 608 L783 532.5 Q790.1 524.6 793 512.5 Q798.22 501.71 798 485.5 L547.5 485  Z "/>
        <path fill="#ffba00" fill-opacity="1.0" stroke="#ffffff" stroke-opacity="1.0" stroke-width="0" d="M524.5 13 L399 229.5 L546.5 485 L797 484.5 L796.5 473 L793.5 461 Q791.41 450.61 786 443.5 L775 424.5 L726 339.5 L595.5 113 L565.5 61 L557 46.5 L545 28.5 Q536.91 18.62 524.5 13  Z "/>
    </g>
</svg>