<svg id="symbologySVG" width="100" height="80" xmlns="http://www.w3.org/2000/svg" xmlns:xlink="http://www.w3.org/1999/xlink" opacity="1.0" preserveAspectRatio="xMidYMid meet" version="1.0" zoomAndPan="magnify">  <desc>Generated by Symbology Studio</desc>  <defs/>
    <g id="root" transform="scale(0.10)">        
        <path fill="#0364b8" fill-opacity="1.0" id="ele7dd16e3" stroke="#ffffff" stroke-opacity="1.0" stroke-width="0" d="M404.5 1 L400.5 2 L394.5 2 L373.5 6 Q352.5 9 335.5 16 Q316.8 22.3 301 31.5 Q270.3 47.3 246.5 70 Q224.2 90.7 207 116.5 L212 117.5 L220.5 118 L234.5 119 Q273 123.5 300.5 139 L322.5 151 L345 164.5 L492.5 253 L577.5 217 L610.5 204 L629.5 199 L637 197.5 L643.5 197 Q644.61 195.36 647.37 195.36 Q649.11 195.36 651.5 196 L655.5 195 L667.5 195 L672.5 196 L675 195.5 Q666.22 158.81 648.5 131 Q634.91 105.6 616 85.5 Q586.6 52.91 546 31.5 Q525.3 19.21 499.5 12 L486.5 8 L463.5 4 L444 1.5 L404.5 1  Z "/>
        <path fill="#0078d4" fill-opacity="1.0" id="elc7b2181a" stroke="#ffffff" stroke-opacity="1.0" stroke-width="0" d="M207.5 117 Q206.48 118.71 203.73 118.71 Q201.98 118.71 199.5 118 L178.5 120 Q142.2 125.2 115.5 140 Q88.81 152.81 68.5 172 Q46 192.5 30 219.5 Q11.5 249 4 289.5 L2 308.5 Q3.3 313.3 1 314.5 L1.5 337 L2.5 349 L5 367.5 L13 395.5 Q22.4 423.11 38.5 444 L368 305.5 L444 273.5 L476.5 260 L492 252.5 L345 164.5 L322.5 151 L300.5 139 Q273 123.5 234.5 119 L207.5 117  Z "/>
        <path fill="#28a8ea" fill-opacity="1.0" id="elcb80c605" stroke="#ffffff" stroke-opacity="1.0" stroke-width="0" d="M490.5 254 L39 444.5 L54 464.5 Q71.7 484.8 95 499.5 Q122.81 518.72 160.5 528 L182.5 532 Q184.95 531.35 186.7 531.35 Q189.47 531.35 190.5 533 L659.5 533 L681 532.5 L685.5 532 Q699 531 709.5 527 Q727.1 523.1 740.5 515 Q760.91 505.4 776.5 491 Q798.6 472.11 812 444.5 L575 302.5 L517 267.5 L502 258.5 L495.5 255 L490.5 254  Z "/>
        <path fill="#1d98e0" fill-opacity="1.0" id="el6f3e4a17" stroke="#ffffff" stroke-opacity="1.0" stroke-width="0" d="M648.5 196 L648.5 196 L643.5 197 L635.5 198 L624 200.5 L606.5 206 L579.5 217 L519.5 242 L491 253.5 Q498.5 254 502 258.5 L519.5 269 L578.5 304 L812.5 444 Q825.3 423.8 830 395.5 L832 380.5 Q830.8 375.8 833 374.5 L832.5 354 L831 340.5 L828.5 327 Q826.1 312.4 820.5 301 L814 286.5 Q803.41 265.61 788 249.5 Q769.91 229.62 745 216.5 L728 208.5 L714 203.5 L707.5 202 Q700.5 198.5 690.5 198 L670 195 L648.5 196  Z "/>
    </g>
</svg>