<svg id="symbologySVG" width="100" height="90" xmlns="http://www.w3.org/2000/svg" xmlns:xlink="http://www.w3.org/1999/xlink" opacity="1.0" preserveAspectRatio="xMidYMid meet" version="1.0" zoomAndPan="magnify">  
    <desc>Generated by Symbology Studio</desc>  
    <defs/>
    <g id="root" transform="scale(0.1)">        
        <path fill="#1ebcc5" fill-opacity="1.0" id="el8fc660b2" stroke="#ffffff" stroke-opacity="1.0" stroke-width="0" d="M529.12 248.87 Q527.91 248.87 526.5 249 L456.5 249 L456.5 302 L527.5 302 Q537.72 301.71 542.5 296 Q549.6 290.61 552 280.5 L551.5 270 L548 260.5 L536.5 251 Q533.91 248.87 529.12 248.87  Z M510.5 185 L537 185.5 Q551.41 186.62 561.5 192 Q580.3 199.7 593 213.5 L601 223.5 L607 233.5 L610 240.5 Q615.41 249.62 616.5 263 L617 288.5 Q610.3 321.8 589.5 341 L569.5 355 Q560.3 361.3 546.5 363 Q543.5 365.58 537.93 365.58 Q537 365.58 536 365.5 L517.5 366 L461.5 366 Q460.24 365.74 459.24 365.74 Q456.74 365.74 456 367.5 L456 399.5 Q457.21 422.71 444.5 432 L439 435.5 L435.5 437 L426 440.5 L415.5 441 Q401.9 438.11 394 429.5 Q383.5 419.5 385 397.5 L385 361.5 L385 214.5 Q388.21 198.7 399.5 191 L413.5 185  Z M475.5 90 Q474.74 91.49 472.5 91.49 Q471.24 91.49 469.5 91 L460.5 92 L453 92.5 L444.5 94 L425 98.5 Q401 104.5 382.5 116 Q355.11 129.12 334.5 149 Q313.71 168.7 298 193.5 L282 225.5 L277 238.5 L272.5 256 L269 274.5 L268 284.5 L267 289.5 L267.5 319 L270 339.5 L273 353.5 Q277 374 285.5 390 Q293.3 410.21 306 425.5 L323 447.5 Q343.71 469.8 370.5 486 Q388.11 497.4 409.5 505 L441.5 514 L457.5 516 L462.5 517 L469.5 517 L472.5 518 L500 517.5 L515.5 516 L543.5 511 L560.5 505 Q574.5 501.5 585.5 495 Q613 481.5 634.5 462 Q653.91 444.9 668.5 423 Q683.41 402.4 692.5 376 Q700.22 358.21 703 335.5 L704 326.5 L705 321.5 L705 294.5 L704 281.5 L700 256.5 Q685.6 199.4 651 162.5 Q626.72 134.81 592.5 117 L566.5 105 L544.5 98 L527.5 94 L514.5 92 L503.5 91 L497 90.5 L475.5 90  Z M467.5 59 L506 59.5 L522.5 61 L536.5 64 L546.5 66 L561.5 70 L582.5 77 L608.5 90 Q646.6 109.92 674 140.5 Q698.72 166.81 715 201.5 L725 226.5 L730 241.5 L735 267.5 L736.5 277 L737.5 292 L738 316.5 Q735.8 317.8 737 322.5 L736 333.5 L732 356.5 L726 379.5 Q719 402.5 708 421.5 Q688.5 456 660.5 482 Q634 507 599.5 524 L583.5 531 Q568.5 538.5 549.5 542 L531.5 546 L508.5 549 L502 549.5 L470.5 550 Q469.74 548.6 467.46 548.6 Q466.21 548.6 464.5 549 L440.5 546 Q390.61 536.91 354.5 514 Q319.61 493.4 294 463.5 Q272.8 440.21 259 409.5 Q247.31 388.71 241.5 362 L237.5 342 L235 320.5 L235 309.5 L234 304.5 L235 301.5 L235 292.5 L235.5 282 L237 270.5 L238 266.5 Q240.81 240.81 249.5 221 Q256.9 197.4 270 179.5 Q277.71 164.2 289 152.5 L300 139.5 L319.5 120 Q340.8 100.81 368 87.5 Q398.3 70.81 437.5 63 L453.5 61 L457.5 60 L463.5 60 L467.5 59  Z M469.5 0 Q468.58 1.58 466.08 1.58 Q464.58 1.58 462.5 1 L448 2.5 L426.5 6 L404.5 11 Q371.71 19.21 345.5 34 Q304.8 53.8 273.5 83 Q239.31 114.81 215 156.5 Q202.7 177.7 194 202.5 Q186.4 220.4 183 242.5 L180 256.5 L178.5 266 L177.5 276 L177 293.5 L176 293.5 L176.5 270 L178 248.5 L182 227.5 L186.5 209 Q192.62 182.62 204 161.5 L203.5 160 L185 163.5 Q168 166 154.5 172 Q134.62 178.12 118.5 188 Q97 199.5 79.5 215 Q58.82 232.81 43 255.5 Q28.71 273.71 20 297.5 Q14.32 306.3 12 318.5 L8 332.5 L5 345.5 L3 361.5 L2 366.5 L2.5 401 L3 410.5 L9 441.5 Q14.4 463.11 24 480.5 Q38.91 512.6 62 536.5 Q86.31 563.72 120.5 581 L146.5 594 Q166.4 602.6 191.5 606 L202.5 608 L213.5 609 L218.5 610 L802.5 610 L829 609.5 L842.5 608 L857.5 605 Q872.5 602 884.5 596 Q906 586.5 922.5 572 Q938.72 558.72 950 540.5 Q964.22 522.22 970 495.5 L975 473.5 L975 449.5 L973.5 435 Q971.41 416.11 964.5 402 Q955.8 378.71 941 361.5 L917.5 339 L899 365.5 Q883.91 382.9 862.5 394 L861 393.5 L874.5 384 Q901 362.5 913.5 327 L916 318.5 L918 307.5 L920 298.5 L920 280.5 L919 270.5 L916 253.5 Q911.72 237.31 904 224.5 L885 199.5 Q872.91 186.62 856.5 178 L840.5 170 L820.5 163 L803.5 160 L773 160.5 Q782.72 178.31 788.5 200 L797 233.5 L800 254.5 L800 261.5 L801 264.5 L800.5 284 L798 260.5 L794.5 242 L790.5 225 L784 205.5 Q776 180.5 764 159.5 Q746.22 127.31 722 101.5 Q665.41 37.6 571.5 11 Q560.1 6.41 545.5 5 L530 2.5 L514.5 1 L497.5 0  Z "/>
    </g>
</svg>