<svg id="symbologySVG" width="100" height="100" xmlns="http://www.w3.org/2000/svg" xmlns:xlink="http://www.w3.org/1999/xlink" opacity="1.0" preserveAspectRatio="xMidYMid meet" version="1.0" zoomAndPan="magnify">
    <desc>Generated by Symbology Studio</desc>  
    <defs/>
    <g id="root" transform="scale(0.10)">        
        <path fill="#007ee5" fill-opacity="1.0" stroke="#ffffff" stroke-opacity="1.0" stroke-width="0" d="M206.5 1 L1 134.5 L144.5 250 L349.5 122 L350 120.5 L248.5 35 L221 11.5 L206.5 1  Z M496.5 1 L356.5 117 L353 121.5 L560.5 250 L702 134.5 L551.5 36 L510.5 9 L502.5 4 L496.5 1  Z M143.5 251 L2.5 361 L1 363.5 L206.5 498 L218 489.5 L243 468.5 L346.5 382 L350 377.5 L199.5 285 L158.5 259 L143.5 251  Z M559.5 251 L354.5 376 L353 378.5 L496.5 498 L505 493.5 L522 482.5 L564.5 455 L702 364.5 L596 279.5 L569 257.5 L563.5 253 L559.5 251  Z M352.5 405 L207.5 526 L146.5 485 L146 529.5 L352.5 654 L367.5 646 L404.5 623 L560 530.5 L559.5 485 L497.5 526 L357.5 409 L357 407.5 L352.5 405  Z "/>
    </g>
</svg>