<svg id="symbologySVG" width="100" height="100" xmlns="http://www.w3.org/2000/svg" xmlns:xlink="http://www.w3.org/1999/xlink" opacity="1.0" preserveAspectRatio="xMidYMid meet" version="1.0" zoomAndPan="magnify">  
    <desc>Generated by Symbology Studio</desc>  
    <defs/>
    <g id="root" transform="scale(0.10)">        
        <path fill="#00aeef" fill-opacity="1.0" id="el77f4777c" stroke="#ffffff" stroke-opacity="1.0" stroke-width="0" d="M183.5 335 L183.5 335 L183.5 335 L183.5 335 L183.5 335 L183.5 335 L183.5 335 L183.5 335 L183.5 335 L183.5 335 L183.5 335 L183.5 335 L172.5 338 L163.5 342 L153.5 349 L153 350.5 L151.5 351 Q142.81 359.3 139 372.5 L136 381.5 L136 395.5 L137 401.5 L140 412.5 L142 416.5 L151 429.5 Q160.9 440.61 177.5 445 L188.5 447 L199.5 446 L209.5 444 L214.5 442 L225.5 436 Q239.12 427.11 244.5 410 L248 396.5 L247.5 384 L245 371.5 L240 360.5 L238.5 360 L236 355.5 Q228.81 346.21 218 340.5 L205.5 336 L201 335.5 L183.5 335  Z M361.65 334.4 Q357.4 334.4 352.5 335 L340.5 338 L336.5 340 L322.5 349 L322 350.5 L320.5 351 L320 352.5 L318.5 353 Q312.3 359.8 309 369.5 L305 380.5 L305 395.5 L306 402.5 L308 409.5 Q311.11 420.4 318 427.5 Q328.4 440.11 346.5 445 L357.5 447 L368.5 446 L380.5 443 Q389.71 440.71 395.5 435 Q404.3 428.8 409 418.5 Q414.11 412.61 415.5 403 L417 395.5 L416.5 385 L414 371.5 L409 360.5 L407.5 360 L405 355.5 Q398.5 347 388.5 342 L384.5 340 L376.5 337 Q370.4 334.4 361.65 334.4  Z M587.29 296.74 Q589.25 296.74 591.5 297 Q600.8 298.8 605 305.5 Q608.91 309.61 608 318.5 L606 323.5 L602 329.5 L589 344.5 L563 376.5 L556.5 385 Q553.3 386.8 553 391.5 L585.5 432 L587 432.5 L594.5 443 L596 443.5 L603 453.5 Q609 457.5 608 468.5 Q606.8 476.8 600.5 480 L593.5 483 Q591.47 484.49 587.97 484.49 Q585.97 484.49 583.5 484 Q573 481 568 472.5 L527.5 423 Q526.93 422.93 526.43 422.93 Q523.43 422.93 523 425.5 L478.5 480 L471.5 483 Q469.46 484.49 465.96 484.49 Q463.96 484.49 461.5 484 L452 479.5 L451.5 478 L450 477.5 Q445 473 445 463.5 L449 454.5 L456.5 445 L458 444.5 L489 405.5 L498 394.5 Q501 393.5 500 388.5 L497.5 385 L496 384.5 L488.5 374 L487 373.5 L458 337.5 L450.5 328 Q445 323.5 445 313.5 Q446.71 305.21 452.5 301 L461.5 297 Q463.24 296.9 464.86 296.9 Q479.24 296.9 484 306.5 L519.5 351 L521 351.5 L524.5 357 L527.5 358 L573.5 302 L578.5 299 Q581.75 296.74 587.29 296.74  Z M113.5 215 Q126.13 215.4 131 223.5 L133.5 230 L134 235.5 L134 252.5 L134 296.5 L134 307.5 Q133 312 135.5 313 L157.5 302 L174.5 297 L184.5 296 L205.5 296 L227.5 302 Q251.12 311.9 266 330.5 L276.5 345 L294.5 322 L296 321.5 L296.5 320 L310.5 310 L323 303.5 L331.5 300 L343.5 297 L353.5 296 L374.5 296 L396.5 302 Q419.4 311.61 434 329.5 Q444 340.5 449 356.5 L453 367.5 L455 379.5 L456 397.5 L453.5 411 L451 419.5 Q447.61 433.61 440 443.5 L421.5 464 L408.5 473 L396.5 479 L382.5 483 L367 485.5 L354.5 486 L343.5 484 Q329 482 318.5 476 Q302.4 468.11 291 455.5 L276.5 436 L259.5 458 Q248.23 469.73 232.5 477 L217.5 482 L202.5 485 L185.5 486 L174.5 484 L166.5 482 L149.5 476 Q136.12 469.42 126 459.5 L125.5 458 L124 457.5 L123.5 456 L122 455.5 Q111.31 444.21 105 428.5 L100 414.5 L98 404.5 L97 396.5 L97 363.5 L97 230.5 Q99.2 222.12 105.5 218 L113.5 215  Z M589 0 Q538 -1 481 0 L104 0 Q12 3 1 96 L2 593 Q6 687 112 701 L592 701 Q693 689 704 592.5 L705 93 Q696 -2 600 0  Z "/>
    </g>
</svg>