<svg id="symbologySVG" width="100" height="80" xmlns="http://www.w3.org/2000/svg" xmlns:xlink="http://www.w3.org/1999/xlink" opacity="1.0" preserveAspectRatio="xMidYMid meet" version="1.0" zoomAndPan="magnify">  
    <desc>Generated by Symbology Studio</desc>  
    <defs>    
        <linearGradient id="gradient-37b63277-F" spreadMethod="pad" x1="3%" x2="82%" xmlns:xlink="http://www.w3.org/1999/xlink" y1="80%" y2="41%">      
            <stop offset="0%" style="stop-opacity:1.0; stop-color:rgb(0,204,255);"/>
            <stop offset="100%" style="stop-opacity:1.0; stop-color:rgb(0,102,255);"/>
        </linearGradient>  
    </defs>  
    <g id="root" transform="scale(0.12)">        
        <path fill="url(#gradient-37b63277-F)" stroke="#000000" stroke-opacity="1.0" stroke-width="0" d="M431.45 3.59 C398.59 7.12 362.83 20.41 335 39.51 C317.08 51.78 293.34 75.44 281.24 93.44 C275.9 101.13 271.18 108.13 270.48 108.99 C269.93 109.7 264.98 108.45 259.62 106.17 C241.15 98.06 221.12 95 202.25 97.59 C175.28 101.45 155.87 110.95 136.86 130.22 C123.09 143.81 111.94 164.17 108.63 180.84 C107.53 186.64 106.27 192.78 105.96 194.9 C105.34 197.26 102.12 199.93 97.56 202.06 C76.88 211.34 52.51 231.68 38.28 251.73 C7 295.52 0 350.93 19.65 401.7 C38.14 449.4 83.8 487.53 134.89 497.36 C154.31 501.05 649.72 501.05 667.24 497.36 C724.62 485.09 769.04 440.77 781.77 383.08 C786 364.05 784.84 327.98 779.17 310.36 C768.24 276.18 747.18 248.12 717.62 228.62 C705.45 220.45 682.03 210.47 671.17 208.81 C666.85 208.26 663.55 207.25 663.55 206.53 C663.55 205.98 662.68 198.12 661.83 189.4 C652.86 111.27 602.64 45.73 529.3 16.63 C501.48 5.72 461.62 0.37 431.45 3.59  Z "/>
    </g>
</svg>