<svg id="symbologySVG" width="100" height="100" xmlns="http://www.w3.org/2000/svg" xmlns:xlink="http://www.w3.org/1999/xlink" opacity="1.0" preserveAspectRatio="xMidYMid meet" version="1.0" zoomAndPan="magnify">  
    <desc>Generated by Symbology Studio</desc>  
    <defs/>
    <g id="root" transform="scale(0.11)">        
        <path fill="#7eb545" fill-opacity="1.0" id="el248b8f45" stroke="#ffffff" stroke-opacity="1.0" stroke-width="0" d="M210 0 Q167 0 142 1 L142 2 Q31 8 1 123 L1.5 296 L152 144 Q163 131 177 127 L466 127 Q476 127 483 132 L572 42.5 Q537 8 492 1 L210 0  Z "/>
        <path fill="#99bc88" fill-opacity="1.0" id="el55daff6b" stroke="#ffffff" stroke-opacity="1.0" stroke-width="0" d="M571.5 43 L483 131 L489 146.5 L489 367.5 L489 423.5 Q490 444 469 462 L318 614 L495 613 Q594 589 615 488.5 L614 118 Q600 68 573 43  Z "/>
        <path fill="#5e93f6" fill-opacity="1.0" id="el572985c6" stroke="#ffffff" stroke-opacity="1.0" stroke-width="0" d="M378.2 388.2 Q371 388.2 362 399 L363 399 L315 447 L285 477 Q273.55 485.91 263.18 485.91 Q249.1 485.91 237 469.5 L191.5 425 L191 426.5 L42 573 Q63 598 113 614 L314.5 615 Q314.55 615.01 314.6 615.01 Q315.52 615.01 318 613 L469 461 Q454 458 449 451 L387 393 Q383 388.2 378.2 388.2  Z "/>
        <path fill="#5f94d0" fill-opacity="1.0" id="elff2981e7" stroke="#ffffff" stroke-opacity="1.0" stroke-width="0" d="M156.5 141 L154.5 142 L1 296.5 L0 489 Q10 547 43 575 L190.5 427 L192 424.5 L147 379.5 L135.5 368 Q130.12 363.9 128 356.5 Q126.42 344.4 139 330 L234 235 L177 179 Q159.4 163.62 157 155.5 L157 143 L156.5 141  Z "/>
        <path fill="#a0b5d7" fill-opacity="1.0" id="elbed8dd38" stroke="#ffffff" stroke-opacity="1.0" stroke-width="0" d="M174.5 127 L165.5 131 L157 141.5 L157 151.5 L158 156.5 L159 159.5 L166 167 L213 214 L228.5 229 L233 234.5 L158.5 310 L139 329.5 L131.5 338 L128 345.5 Q126.31 358.21 132 363.5 L222.5 454 L245 476.5 Q250.62 485.43 262.5 488 Q278.61 487.11 285 476.5 L304 457.5 L379.5 382 L382.5 383 L383 384.5 L386 387 L424 425 Q454.8 456.8 461.5 458 L464.5 459 L469.5 458 L473.5 459 L478.5 456 Q485.93 450.4 489 440.5 L489 190 L489 149.5 Q488.61 139.9 484 134.5 Q478.3 127.31 465.5 127  Z "/>
        <path fill="#e6eaea" fill-opacity="1.0" id="el10952769" stroke="#ffffff" stroke-opacity="1.0" stroke-width="0" d="M481.5 136 L479.5 137 L471 144 L434 182 L433 393 L401 363 Q383.51 340.08 369.3 340.08 Q359.94 340.08 352 350 L296 405 L263 433 Q259.27 439.45 253.24 439.45 Q241.49 439.45 221 415 L211 404 L194 422.5 L192 421 L243 474 L258.5 486 L271 484 L278 481.5 L302 457 L370 389.5 Q376 387 382 386 L456 454 Q462.3 457.71 467.64 457.71 Q476.71 457.71 483 447 L486 217.5 L485 139 L481.5 136  Z "/>
        <path fill="#96be6f" fill-opacity="1.0" id="el82717490" stroke="#ffffff" stroke-opacity="1.0" stroke-width="0" d="M219.5 182 L220 185.5 L221.5 186 L264 233 Q282 248 265 262 L184 344 L168.5 360 L168 363.5 L237 432 L249.5 444 L253.5 445 L266 430 L354 344 L363.5 340 Q364.9 339.93 366.24 339.93 Q377.4 339.93 382.5 346 L427 391.5 L430.5 393 L432 393.5 L432 201 L431 182  Z "/>
        <path fill="#7cb544" fill-opacity="1.0" id="el3d1f9d26" stroke="#ffffff" stroke-opacity="1.0" stroke-width="0" d="M223.5 183 L223.5 183 L223.5 183 L223 184.5 L227.5 188 L228 189.5 L233 194 L258 219 L273 238 L274 252.5 L271 259.5 L269.5 260 L177 352 Q162 357 189 383 L211 403 L424 188.5 L427.5 187 L429 183.5 L223.5 183  Z "/>
    </g>
</svg>