<svg id="symbologySVG" width="100" height="100" xmlns="http://www.w3.org/2000/svg" xmlns:xlink="http://www.w3.org/1999/xlink" opacity="1.0" preserveAspectRatio="xMidYMid meet" version="1.0" zoomAndPan="magnify">  
    <desc>Generated by Symbology Studio</desc>  
    <defs/>
    <g id="root" transform="scale(0.10)">        
        <path fill="#91c698" fill-opacity="1.0" id="el1a7794ae" stroke="#ffffff" stroke-opacity="1.0" stroke-width="0" d="M369.5 2 L366.5 3 L360.5 3 L340.5 5 L323.5 7 L306.5 10 L285.5 15 L270 19.5 L233.5 33 L199.5 50 Q151.9 75.41 115.5 112 L110 118.5 L106.5 121 Q75.31 153.81 52 194.5 L40 217.5 L32 235.5 L27 247.5 L22 260.5 L14 286.5 L10 302.5 L6.5 321 L3.5 343 L3 349.5 L2 352.5 L2.5 354 L30 320.5 L46.5 305 L47 303.5 Q80.2 272.21 122.5 250 Q152.31 233.81 188.5 224 L211 218.5 L236.5 214 L252.5 212 L268.5 211 L283.5 210 Q293.4 191.4 306.5 176 L329 148.5 Q354.8 120.31 387 98.5 L414 81.5 L436 70.5 L451.5 64 L470.5 56 L493 49.5 L526.5 42 L548 38.5 L522 27.5 L505.5 21 L487.5 16 L467.5 11 L452.5 8 L438.5 6 L421.5 4 L402 2.5 L369.5 2  Z "/>
        <path fill="#78b442" fill-opacity="1.0" id="eld2819819" stroke="#ffffff" stroke-opacity="1.0" stroke-width="0" d="M558.5 61 L555.5 62 L547.5 62 L524.5 66 L505.5 70 L489 74.5 L462.5 84 L446 91.5 Q420.74 102.7 399.5 118 L399 119.5 L396.5 120 L396 121.5 L391.5 124 L382 131.5 L365.5 145 L365 146.5 L362.5 148 L356 155.5 L354.5 156 L348 163.5 L346.5 164 L329 185.5 L327.5 186 L326 189.5 L324.5 190 L316 203.5 L314.5 204 L313 207.5 L310.5 211 L312.5 210 Q313.25 212.25 316.25 212.25 Q317.25 212.25 318.5 212 L326.5 213 L344 215.5 L368 220.5 Q420.93 233.12 461 258.5 L492 278.5 L514.5 296 L516 298.5 L523.5 304 L524 305.5 L531.5 312 L533 314.5 L539.5 320 L543 325.5 L546.5 328 L571 360.5 L572.5 361 L573.5 363 L588 332.5 L587 330.5 L588.5 330 L598 302.5 L602 286.5 L604 276.5 L606 263.5 L606 261.5 L608 250.5 L609 240.5 L610 235.5 L609.5 190 L608 169.5 Q604.5 168 607 166.5 L603.5 145 L600 131.5 L590 98.5 L574 62.5 L568.5 61  Z "/>
        <path fill="#d8e631" fill-opacity="1.0" id="el14a13223" stroke="#ffffff" stroke-opacity="1.0" stroke-width="0" d="M603.5 71 L612 93.5 L619 115.5 L626 143.5 L630 162.5 L632 183.5 L633 188.5 L632.5 234 L632 245.5 L629 269.5 L625 286.5 L622 299.5 L617 316.5 Q605.91 354.9 587 385.5 L601.5 415 L611 436.5 L622 472.5 L627 492.5 L630 511.5 L632 532.5 Q630.8 537.3 633 538.5 L632.5 584 L632 593.5 L631 598.5 L629.5 610 L627 625.5 L624 638.5 L619 657.5 L613.5 674 L604 699.5 L603.5 701 L614.5 694 L633.5 679 L634 677.5 L639.5 674 L640 672.5 L641.5 672 Q661.5 655.5 677 634.5 L678.5 634 L691.5 617 L707 594.5 Q719 578.5 727.5 559 L741 529.5 L750 503.5 Q753.8 498.3 754.5 490 L760 467.5 L764 446.5 L766.5 428 L768 407.5 L768 401.5 L769 398.5 L768 363.5 L767 348.5 L765 331.5 L759.5 302 L753.5 278 L744 249.5 L734.5 227 L726.5 211 Q706.72 170.81 679 138.5 L677.5 138 L670 128.5 L640.5 100 L640 98.5 L634.5 95 L634 93.5 L628.5 90 L628 88.5 L613.5 78 L603.5 71  Z "/>
        <path fill="#57a687" fill-opacity="1.0" id="el398cfcb0" stroke="#ffffff" stroke-opacity="1.0" stroke-width="0" d="M260.5 234 Q259.74 235.5 257.5 235.5 Q256.24 235.5 254.5 235 L237.5 237 L217 240.5 L204 243.5 L187.5 248 L175 252.5 Q150.4 260.4 130 272.5 Q96.5 290 69.5 314 L69 315.5 L52.5 330 Q27.81 354.8 9 385.5 Q28.63 419.42 56 445.5 L68.5 456 L69 457.5 Q96.5 482.5 131.5 500 Q169.81 522.72 221.5 532 L244.5 536 L254.5 537 L259.5 538 L271 537.5 Q262.71 524.3 258 507.5 L249 481.5 L240 440.5 L237 417.5 L237 409.5 L236 406.5 L236.5 365 L239.5 335 L248 293.5 L258 263.5 L270 234.5 L260.5 234  Z "/>
        <path fill="#8cb74b" fill-opacity="1.0" id="el3fc7ef6e" stroke="#ffffff" stroke-opacity="1.0" stroke-width="0" d="M572.5 410 Q569.8 411.3 572 412.5 L570.5 413 Q567.5 413.5 568 417.5 L566.5 418 L562 425.5 L560.5 426 L555 433.5 L552 436.5 L552 438.5 L550.5 439 L544.5 445 L543 448.5 L541.5 449 L532 459.5 L517.5 472 L511 479.5 L509.5 479 L498.5 488 L498 489.5 L471.5 507 L470 509.5 L468.5 509 L466.5 510 L466 511.5 Q465.36 513.04 464.68 513.04 Q464.11 513.04 463.5 512 L454.5 517 L453 519.5 L451.5 519 Q433 531 409.5 538 Q404.11 542.6 394.5 543 L394 544.5 L375.5 549 Q374.65 551.05 373.75 551.05 Q373.15 551.05 372.5 550 L346.5 556 L344.5 556 L330 558.5 L317.5 560 L310 561.5 L312.5 563 L312 564.5 L321 577.5 L323.5 579 L323 580.5 L326.5 583 L326 584.5 L349 611.5 L350.5 612 L351 613.5 L355.5 616 L357 619.5 L360.5 621 L361 622.5 L367 628.5 L370.5 630 L371 631.5 L377.5 637 L380 639.5 L381.5 639 L382 640.5 Q393.11 651.41 407.5 659 Q408.4 661.05 409.25 661.05 Q409.9 661.05 410.5 660 L411 661.5 Q426.11 672.41 444.5 680 L469 690.5 L482.5 696 L494.5 699 L506.5 703 L507.05 703 Q515.29 703 520.5 706 L541.5 709 L556 710.5 L572.5 711 L583.5 689 L592 666.5 Q597.22 658.22 598 645.5 Q601.5 644 599 642.5 L601.5 636 L603.5 627 L606 613.5 L608 599.5 L609 588.5 Q611.8 582.3 610 571.5 Q608.5 566 611 564.5 L610 543.5 L609.5 533 L608 518.5 L602.5 487 L600 476.5 L598 470.5 L598 468.5 L591 447.5 Q587.5 446 590 444.5 L575 410.5 L572.5 410  Z "/>
        <path fill="#cef1f5" fill-opacity="1.0" id="elc3635d6d" stroke="#ffffff" stroke-opacity="1.0" stroke-width="0" d="M2.5 417 L5 446.5 L8 461.5 L14 486.5 L20.5 508 L32 538.5 L42 559.5 Q63.12 602.41 93 636.5 L94.5 637 L102 646.5 L107.5 651 L108 652.5 L120.5 664 L121 665.5 Q153.12 696.91 194 719.5 Q224.31 738.22 261.5 750 L281.5 756 L301.5 761 L322.5 765 L337.5 767 L356.5 769 Q358.58 768.47 360.08 768.47 Q362.58 768.47 363.5 770 L406 769.5 L420 768.5 L447.5 765 L475 759.5 L498.5 753 L512 748.5 L528 742.5 L547.5 734 L548 732.5 L528.5 730 L506 725.5 L490 721.5 L475.5 717 Q448.8 708.72 426 696.5 Q391.24 678.8 362.5 655 L362 653.5 L344.5 639 L344 637.5 L342.5 637 L342 635.5 L335.5 630 L335 628.5 L333.5 628 L319 610.5 L317.5 610 Q298.4 588.1 284 561.5 L261 560.5 L250 559.5 L230.5 557 L219.5 555 Q197.9 551.6 179.5 545 L156 536.5 L123.5 522 Q76.63 497.42 40.5 462 L39 459.5 L37.5 459 L36 456.5 L34.5 456 L26 445.5 L24.5 445 L2.5 417  Z "/>
    </g>
</svg>