<svg id="symbologySVG" width="1920" height="1080" xmlns:symbology="http:www.symbologysvg.net" xmlns="http://www.w3.org/2000/svg" xmlns:xlink="http://www.w3.org/1999/xlink" contentScriptType="text/ecmascript" contentStyleType="text/css" opacity="1.0" preserveAspectRatio="xMidYMid meet" version="1.0" zoomAndPan="magnify">  
  <style>
    .heading {
      font-size:36px;font-weight:bold;fill:#ffffff;
    }  
    .article {
      font-size:16px;font-weight:bold;fill:#0178af;
    }  
    .text {
      font-size:16px;font-weight:bold;fill:#0178af;
    }
  </style>
  
  <g transform="translate(-850,200) scale(2)">
  
  <rect id="rounded-rectangle" x="500" y="20" height="60" width="800" stroke="#0178af" rx="5" stroke-width="1" fill="#0178af" />
  
  <g transform="translate(515,30) scale(0.4)">
	  <svg xmlns="http://www.w3.org/2000/svg" width="87" height="100">
		<path fill="#ffffff" d="M27.73 0.5 C27.33 0.91 27.04 8.81 27.04 18.12 C27.04 33.94 26.94 34.94 25.13 34.94 C24.13 34.94 21.63 32.94 19.53 30.44 C17.53 27.92 15.43 25.92 14.93 26.13 C14.43 26.32 11.82 28.23 9.02 30.44 L3.92 34.44 L4.22 61.07 L4.52 87.69 L7.22 91.69 C11.93 98.79 15.93 100 35.14 100 C56.37 99.9 60.07 98.5 64.67 88.48 C66.57 84.48 66.57 84.48 73.19 83.98 C84.09 83.19 86.09 79.88 86.09 62.96 C86.09 46.35 83.49 41.94 73.59 41.94 C67.57 41.94 66.07 40.75 66.07 36.23 C66.07 33.63 67.07 31.74 70.69 27.92 C75.69 22.52 77.28 17.92 76.09 12.42 C74.99 7.41 70.69 2.2 67.07 1.41 C63.17 0.6 62.07 1.41 62.07 5 C62.07 6.7 60.98 10.02 59.57 12.42 C57.37 16.02 57.07 17.52 57.57 21.63 C58.16 26.02 57.96 26.82 54.96 30.63 C51.87 34.63 51.26 34.94 46.85 34.94 C43.35 34.94 42.05 34.53 42.05 33.53 C42.05 32.63 43.25 31.94 44.85 31.74 C46.75 31.53 47.55 30.84 47.55 29.42 C47.55 27.92 46.75 27.32 44.25 27.13 C40.05 26.73 40.55 24.52 44.85 24.13 C47.25 23.92 48.05 23.32 48.05 21.92 C48.05 20.52 47.25 19.92 44.85 19.71 C40.55 19.31 40.05 17.12 44.25 16.71 C46.75 16.52 47.55 15.92 47.55 14.42 C47.55 12.81 46.75 12.31 43.85 12.12 C41.46 11.92 40.05 11.31 40.05 10.42 C40.05 9.5 41.46 8.91 43.85 8.7 C47.46 8.41 47.55 8.31 47.55 4.41 L47.55 0.41 L38.05 0.1 C32.75 0 28.13 0.1 27.73 0.5  Z M36.55 51.96 C40.16 55.66 43.05 55.96 43.05 52.55 C43.05 49.64 46.35 48.14 48.55 49.94 C51.46 52.35 49.66 56.96 45.85 56.96 C43.16 56.96 43.66 58.96 47.25 62.66 L50.46 65.96 L47.25 69.27 C43.66 72.97 43.16 74.97 45.85 74.97 C49.75 74.97 51.57 80.08 48.25 81.88 C45.96 83.08 43.05 81.48 43.05 78.97 C43.05 75.47 40.96 75.68 36.94 79.57 L33.05 83.38 L29.54 79.97 C25.63 76.18 25.54 74.78 29.13 73.97 C30.64 73.57 31.64 72.57 31.85 71.07 C32.35 67.96 30.74 66.57 27.63 67.37 C25.73 67.87 25.04 68.66 25.04 70.47 C25.04 73.97 23.04 73.57 19.03 69.46 L15.62 65.96 L19.03 62.46 C22.83 58.55 25.04 57.96 25.04 60.87 C25.04 63.26 27.44 65.26 29.73 64.76 C32.44 64.26 32.25 58.66 29.54 58.16 C25.63 57.46 25.54 56.05 29.04 52.46 C30.95 50.55 32.75 48.94 33.05 48.94 C33.35 48.94 34.94 50.25 36.55 51.96  Z M75.09 54.85 C76.28 57.16 76.38 68.87 75.19 70.78 C74.69 71.57 72.88 71.97 70.49 71.78 L66.57 71.47 L66.27 63.57 C66.07 59.16 66.17 55.05 66.48 54.25 C67.27 52.16 73.78 52.55 75.09 54.85  Z M0.71 17.62 C0 18.21 0.41 21.73 1.62 27.63 C1.81 28.92 2.51 29.92 3.11 29.92 C4.62 29.92 12.03 24.02 12.03 22.82 C12.03 22.32 9.82 20.82 7.02 19.42 C1.51 16.62 1.62 16.62 0.71 17.62  Z "/>
	  </svg>
  </g>
  
  <text x="585" y="60" class="heading">Integrated Online Media Resource Archives</text>
  
  <text x="510" y="240" class="article">The above mentioned resource sharing repositories have freely available media archive accounts whose content can</text>
  <text x="510" y="260" class="article">be shared with configured access and edit permissions. Links to their resources can be appended to design strategies</text>
  <text x="510" y="280" class="article">Many allow till 1 Gigs worth of free space which you can freely access to add and delete resources in very easy to use</text>
  <text x="510" y="300" class="article">web interfaces which you can access over the internet. We would recommend Google Drive as an email address with</text>
  <text x="510" y="320" class="article">a Youtube Channel and a Google Site universally compatible with all devices are also available with a web interface.</text>
  
  <g transform="translate(500,90)">
	<svg id="box" x="10" y="10" width="70" height="50.4" xmlns:xlink="http://www.w3.org/1999/xlink">    
		<g transform="scale(0.07)">        
			<path d="M183.5 335 L183.5 335 L183.5 335 L183.5 335 L183.5 335 L183.5 335 L183.5 335 L183.5 335 L183.5 335 L183.5 335 L183.5 335 L183.5 335 L172.5 338 L163.5 342 L153.5 349 L153 350.5 L151.5 351 Q142.81 359.3 139 372.5 L136 381.5 L136 395.5 L137 401.5 L140 412.5 L142 416.5 L151 429.5 Q160.9 440.61 177.5 445 L188.5 447 L199.5 446 L209.5 444 L214.5 442 L225.5 436 Q239.12 427.11 244.5 410 L248 396.5 L247.5 384 L245 371.5 L240 360.5 L238.5 360 L236 355.5 Q228.81 346.21 218 340.5 L205.5 336 L201 335.5 L183.5 335  Z M361.65 334.4 Q357.4 334.4 352.5 335 L340.5 338 L336.5 340 L322.5 349 L322 350.5 L320.5 351 L320 352.5 L318.5 353 Q312.3 359.8 309 369.5 L305 380.5 L305 395.5 L306 402.5 L308 409.5 Q311.11 420.4 318 427.5 Q328.4 440.11 346.5 445 L357.5 447 L368.5 446 L380.5 443 Q389.71 440.71 395.5 435 Q404.3 428.8 409 418.5 Q414.11 412.61 415.5 403 L417 395.5 L416.5 385 L414 371.5 L409 360.5 L407.5 360 L405 355.5 Q398.5 347 388.5 342 L384.5 340 L376.5 337 Q370.4 334.4 361.65 334.4  Z M587.29 296.74 Q589.25 296.74 591.5 297 Q600.8 298.8 605 305.5 Q608.91 309.61 608 318.5 L606 323.5 L602 329.5 L589 344.5 L563 376.5 L556.5 385 Q553.3 386.8 553 391.5 L585.5 432 L587 432.5 L594.5 443 L596 443.5 L603 453.5 Q609 457.5 608 468.5 Q606.8 476.8 600.5 480 L593.5 483 Q591.47 484.49 587.97 484.49 Q585.97 484.49 583.5 484 Q573 481 568 472.5 L527.5 423 Q526.93 422.93 526.43 422.93 Q523.43 422.93 523 425.5 L478.5 480 L471.5 483 Q469.46 484.49 465.96 484.49 Q463.96 484.49 461.5 484 L452 479.5 L451.5 478 L450 477.5 Q445 473 445 463.5 L449 454.5 L456.5 445 L458 444.5 L489 405.5 L498 394.5 Q501 393.5 500 388.5 L497.5 385 L496 384.5 L488.5 374 L487 373.5 L458 337.5 L450.5 328 Q445 323.5 445 313.5 Q446.71 305.21 452.5 301 L461.5 297 Q463.24 296.9 464.86 296.9 Q479.24 296.9 484 306.5 L519.5 351 L521 351.5 L524.5 357 L527.5 358 L573.5 302 L578.5 299 Q581.75 296.74 587.29 296.74  Z M113.5 215 Q126.13 215.4 131 223.5 L133.5 230 L134 235.5 L134 252.5 L134 296.5 L134 307.5 Q133 312 135.5 313 L157.5 302 L174.5 297 L184.5 296 L205.5 296 L227.5 302 Q251.12 311.9 266 330.5 L276.5 345 L294.5 322 L296 321.5 L296.5 320 L310.5 310 L323 303.5 L331.5 300 L343.5 297 L353.5 296 L374.5 296 L396.5 302 Q419.4 311.61 434 329.5 Q444 340.5 449 356.5 L453 367.5 L455 379.5 L456 397.5 L453.5 411 L451 419.5 Q447.61 433.61 440 443.5 L421.5 464 L408.5 473 L396.5 479 L382.5 483 L367 485.5 L354.5 486 L343.5 484 Q329 482 318.5 476 Q302.4 468.11 291 455.5 L276.5 436 L259.5 458 Q248.23 469.73 232.5 477 L217.5 482 L202.5 485 L185.5 486 L174.5 484 L166.5 482 L149.5 476 Q136.12 469.42 126 459.5 L125.5 458 L124 457.5 L123.5 456 L122 455.5 Q111.31 444.21 105 428.5 L100 414.5 L98 404.5 L97 396.5 L97 363.5 L97 230.5 Q99.2 222.12 105.5 218 L113.5 215  Z M589 0 Q538 -1 481 0 L104 0 Q12 3 1 96 L2 593 Q6 687 112 701 L592 701 Q693 689 704 592.5 L705 93 Q696 -2 600 0  Z " fill="#00aeef" fill-opacity="1.0" id="el77f4777c" stroke="#ffffff" stroke-opacity="1.0" stroke-width="0" symbology:type="Fluid"/>
		</g>
	</svg>
	<text x="70" y="40" class="text">Box</text>
	
	
	<svg id="dropBox" x="170" y="12" width="70" height="50" xmlns:xlink="http://www.w3.org/1999/xlink">    
		<g transform="scale(0.07)">        
			<path d="M206.5 1 L1 134.5 L144.5 250 L349.5 122 L350 120.5 L248.5 35 L221 11.5 L206.5 1  Z M496.5 1 L356.5 117 L353 121.5 L560.5 250 L702 134.5 L551.5 36 L510.5 9 L502.5 4 L496.5 1  Z M143.5 251 L2.5 361 L1 363.5 L206.5 498 L218 489.5 L243 468.5 L346.5 382 L350 377.5 L199.5 285 L158.5 259 L143.5 251  Z M559.5 251 L354.5 376 L353 378.5 L496.5 498 L505 493.5 L522 482.5 L564.5 455 L702 364.5 L596 279.5 L569 257.5 L563.5 253 L559.5 251  Z M352.5 405 L207.5 526 L146.5 485 L146 529.5 L352.5 654 L367.5 646 L404.5 623 L560 530.5 L559.5 485 L497.5 526 L357.5 409 L357 407.5 L352.5 405  Z " fill="#007ee5" fill-opacity="1.0" id="elcf937d52" stroke="#ffffff" stroke-opacity="1.0" stroke-width="0" symbology:type="Fluid"/>
		</g>
	</svg>
	<text x="230" y="40" class="text">Drop Box</text>	
	
	
	<svg id="googleDrive" x="330" y="12" width="70" height="50" xmlns:xlink="http://www.w3.org/1999/xlink">    
		<g transform="scale(0.06)">        
			<path d="M310.5 1 L305.5 2 L298.5 3 L287.5 6 L274 12.5 L398.5 229 L433 170.5 L524 12.5 Q508.5 1.5 482.5 1  Z " fill="#00832d" fill-opacity="1.0" id="el8f756a6c" stroke="#ffffff" stroke-opacity="1.0" stroke-width="0" symbology:type="Fluid"/>
			<path d="M272.5 13 L259.5 22 Q248.9 30.4 243 43.5 L233 59.5 L197 122.5 L71.5 340 L21.5 426 L9.5 447 Q0.62 461.61 0 484.5 L251.5 485 L399 229.5 L275 14.5 L272.5 13  Z " fill="#00ac47" fill-opacity="1.0" id="el3e3e893b" stroke="#ffffff" stroke-opacity="1.0" stroke-width="0" symbology:type="Fluid"/>
			<path d="M0.5 485 L0.5 493 L2 502.5 L5 513.5 L13 529.5 L31.5 562 L102 682.5 Q111.1 694.91 125.5 702 L251 485.5 L0.5 485  Z " fill="#0066da" fill-opacity="1.0" id="elfb6232b4" stroke="#ffffff" stroke-opacity="1.0" stroke-width="0" symbology:type="Fluid"/>
			<path d="M544.39 485.65 Q543.15 485.65 541.5 486 L251.5 486 L126 702.5 Q136.81 710.72 154 712.5 L161.5 713 L165.5 714 L625.5 714 L638.5 713 L644 712.5 L654.5 710 Q665 708 672 702.5 L548 487.5 Q547.17 485.65 544.39 485.65  Z " fill="#2684fc" fill-opacity="1.0" id="eld257dba0" stroke="#ffffff" stroke-opacity="1.0" stroke-width="0" symbology:type="Fluid"/>
			<path d="M547.5 485 L549 489.5 L555.5 501 L582 545.5 L672.5 702 L682.5 696 Q695.1 686.6 702.5 672 L740 608 L783 532.5 Q790.1 524.6 793 512.5 Q798.22 501.71 798 485.5 L547.5 485  Z " fill="#ea4335" fill-opacity="1.0" id="el53667d11" stroke="#ffffff" stroke-opacity="1.0" stroke-width="0" symbology:type="Fluid"/>
			<path d="M524.5 13 L399 229.5 L546.5 485 L797 484.5 L796.5 473 L793.5 461 Q791.41 450.61 786 443.5 L775 424.5 L726 339.5 L595.5 113 L565.5 61 L557 46.5 L545 28.5 Q536.91 18.62 524.5 13  Z " fill="#ffba00" fill-opacity="1.0" id="el92419172" stroke="#ffffff" stroke-opacity="1.0" stroke-width="0" symbology:type="Fluid"/>
		</g>
	</svg>
	<text x="390" y="40" class="text">Google</text>	

	
	<svg id="iCloud" x="480" y="20" width="70" height="70" xmlns:xlink="http://www.w3.org/1999/xlink">    
		<defs>    
			<linearGradient id="gradient-37b63277-F" spreadMethod="pad" x1="3%" x2="82%" xmlns:xlink="http://www.w3.org/1999/xlink" y1="80%" y2="41%">      
				<stop offset="0%" style="stop-opacity:1.0; stop-color:rgb(0,204,255);"/>
				<stop offset="100%" style="stop-opacity:1.0; stop-color:rgb(0,102,255);"/>
			</linearGradient>  
		</defs>  
		<g transform="scale(0.06)">        
			<path d="M431.45 3.59 C398.59 7.12 362.83 20.41 335 39.51 C317.08 51.78 293.34 75.44 281.24 93.44 C275.9 101.13 271.18 108.13 270.48 108.99 C269.93 109.7 264.98 108.45 259.62 106.17 C241.15 98.06 221.12 95 202.25 97.59 C175.28 101.45 155.87 110.95 136.86 130.22 C123.09 143.81 111.94 164.17 108.63 180.84 C107.53 186.64 106.27 192.78 105.96 194.9 C105.34 197.26 102.12 199.93 97.56 202.06 C76.88 211.34 52.51 231.68 38.28 251.73 C7 295.52 0 350.93 19.65 401.7 C38.14 449.4 83.8 487.53 134.89 497.36 C154.31 501.05 649.72 501.05 667.24 497.36 C724.62 485.09 769.04 440.77 781.77 383.08 C786 364.05 784.84 327.98 779.17 310.36 C768.24 276.18 747.18 248.12 717.62 228.62 C705.45 220.45 682.03 210.47 671.17 208.81 C666.85 208.26 663.55 207.25 663.55 206.53 C663.55 205.98 662.68 198.12 661.83 189.4 C652.86 111.27 602.64 45.73 529.3 16.63 C501.48 5.72 461.62 0.37 431.45 3.59  Z " fill="url(#gradient-37b63277-F)" id="el37b63277" stroke="#000000" stroke-opacity="1.0" stroke-width="0" symbology:type="Fluid"/>
		</g>
	</svg>
	<text x="540" y="40" class="text">I Cloud</text>	

	
	<svg id="imGur" x="630" y="10" width="70" height="55" xmlns:xlink="http://www.w3.org/1999/xlink">    
		<g transform="scale(0.08)">        
			<path d="M210 0 Q167 0 142 1 L142 2 Q31 8 1 123 L1.5 296 L152 144 Q163 131 177 127 L466 127 Q476 127 483 132 L572 42.5 Q537 8 492 1 L210 0  Z " fill="#7eb545" fill-opacity="1.0" id="el248b8f45" stroke="#ffffff" stroke-opacity="1.0" stroke-width="0" symbology:type="Fluid"/>
			<path d="M571.5 43 L483 131 L489 146.5 L489 367.5 L489 423.5 Q490 444 469 462 L318 614 L495 613 Q594 589 615 488.5 L614 118 Q600 68 573 43  Z " fill="#99bc88" fill-opacity="1.0" id="el55daff6b" stroke="#ffffff" stroke-opacity="1.0" stroke-width="0" symbology:type="Fluid"/>
			<path d="M378.2 388.2 Q371 388.2 362 399 L363 399 L315 447 L285 477 Q273.55 485.91 263.18 485.91 Q249.1 485.91 237 469.5 L191.5 425 L191 426.5 L42 573 Q63 598 113 614 L314.5 615 Q314.55 615.01 314.6 615.01 Q315.52 615.01 318 613 L469 461 Q454 458 449 451 L387 393 Q383 388.2 378.2 388.2  Z " fill="#5e93f6" fill-opacity="1.0" id="el572985c6" stroke="#ffffff" stroke-opacity="1.0" stroke-width="0" symbology:type="Fluid"/>
			<path d="M156.5 141 L154.5 142 L1 296.5 L0 489 Q10 547 43 575 L190.5 427 L192 424.5 L147 379.5 L135.5 368 Q130.12 363.9 128 356.5 Q126.42 344.4 139 330 L234 235 L177 179 Q159.4 163.62 157 155.5 L157 143 L156.5 141  Z " fill="#5f94d0" fill-opacity="1.0" id="elff2981e7" stroke="#ffffff" stroke-opacity="1.0" stroke-width="0" symbology:type="Fluid"/>
			<path d="M174.5 127 L165.5 131 L157 141.5 L157 151.5 L158 156.5 L159 159.5 L166 167 L213 214 L228.5 229 L233 234.5 L158.5 310 L139 329.5 L131.5 338 L128 345.5 Q126.31 358.21 132 363.5 L222.5 454 L245 476.5 Q250.62 485.43 262.5 488 Q278.61 487.11 285 476.5 L304 457.5 L379.5 382 L382.5 383 L383 384.5 L386 387 L424 425 Q454.8 456.8 461.5 458 L464.5 459 L469.5 458 L473.5 459 L478.5 456 Q485.93 450.4 489 440.5 L489 190 L489 149.5 Q488.61 139.9 484 134.5 Q478.3 127.31 465.5 127  Z " fill="#a0b5d7" fill-opacity="1.0" id="elbed8dd38" stroke="#ffffff" stroke-opacity="1.0" stroke-width="0" symbology:type="Fluid"/>
			<path d="M481.5 136 L479.5 137 L471 144 L434 182 L433 393 L401 363 Q383.51 340.08 369.3 340.08 Q359.94 340.08 352 350 L296 405 L263 433 Q259.27 439.45 253.24 439.45 Q241.49 439.45 221 415 L211 404 L194 422.5 L192 421 L243 474 L258.5 486 L271 484 L278 481.5 L302 457 L370 389.5 Q376 387 382 386 L456 454 Q462.3 457.71 467.64 457.71 Q476.71 457.71 483 447 L486 217.5 L485 139 L481.5 136  Z " fill="#e6eaea" fill-opacity="1.0" id="el10952769" stroke="#ffffff" stroke-opacity="1.0" stroke-width="0" symbology:type="Fluid"/>
			<path d="M219.5 182 L220 185.5 L221.5 186 L264 233 Q282 248 265 262 L184 344 L168.5 360 L168 363.5 L237 432 L249.5 444 L253.5 445 L266 430 L354 344 L363.5 340 Q364.9 339.93 366.24 339.93 Q377.4 339.93 382.5 346 L427 391.5 L430.5 393 L432 393.5 L432 201 L431 182  Z " fill="#96be6f" fill-opacity="1.0" id="el82717490" stroke="#ffffff" stroke-opacity="1.0" stroke-width="0" symbology:type="Fluid"/>
			<path d="M223.5 183 L223.5 183 L223.5 183 L223 184.5 L227.5 188 L228 189.5 L233 194 L258 219 L273 238 L274 252.5 L271 259.5 L269.5 260 L177 352 Q162 357 189 383 L211 403 L424 188.5 L427.5 187 L429 183.5 L223.5 183  Z " fill="#7cb544" fill-opacity="1.0" id="el3d1f9d26" stroke="#ffffff" stroke-opacity="1.0" stroke-width="0" symbology:type="Fluid"/>
		</g>
	</svg>
	<text x="700" y="40" class="text">Im Gur</text>		
	
	
	
	
	<svg id="mediaFire" x="10" y="84" width="70" height="40" xmlns:xlink="http://www.w3.org/1999/xlink">    
		<g transform="scale(0.045)">        
			<path d="M700.41 0 L700.41 0 L700.41 0 L700.41 0 L700.41 0 L700.41 0 L700.41 0 L700.41 0 L700.41 0 Q655 1 610 13 Q573 21.96 520.41 54 L516.85 61.21 C582 39 643 66 623 125 Q601 192 410 133 Q367 123 318 122 Q190.09 121.78 128 172.81 L113.63 190.81 Q135 169 169 167 Q216 177 198.23 210.62 Q184 229 153 239 Q81.6 257.77 45.21 288 Q17.88 311.08 3.83 347.43 L2 352.8 L36.21 325.8 Q85 298 160 293 Q295 288 344 351 Q370 401 315.21 421.21 L291.8 426.61 Q390 432 563 529 Q683 598 833.6 579.6 Q916.41 567 966.85 522 Q1141 357 1025 142 Q925 -1 700.41 0  Z " fill="#0077ff" fill-opacity="1.0" id="el2059d410" stroke="#ffffff" stroke-opacity="1.0" stroke-width="0" symbology:type="Fluid"/>
		</g>
	</svg>
	<text x="70" y="100" class="text">Media Fire</text>		
	
	
	<svg id="oneDrive" x="170" y="80" width="70" height="40" xmlns:xlink="http://www.w3.org/1999/xlink">    
		<g transform="scale(0.06)">        
			<path d="M404.5 1 L400.5 2 L394.5 2 L373.5 6 Q352.5 9 335.5 16 Q316.8 22.3 301 31.5 Q270.3 47.3 246.5 70 Q224.2 90.7 207 116.5 L212 117.5 L220.5 118 L234.5 119 Q273 123.5 300.5 139 L322.5 151 L345 164.5 L492.5 253 L577.5 217 L610.5 204 L629.5 199 L637 197.5 L643.5 197 Q644.61 195.36 647.37 195.36 Q649.11 195.36 651.5 196 L655.5 195 L667.5 195 L672.5 196 L675 195.5 Q666.22 158.81 648.5 131 Q634.91 105.6 616 85.5 Q586.6 52.91 546 31.5 Q525.3 19.21 499.5 12 L486.5 8 L463.5 4 L444 1.5 L404.5 1  Z " fill="#0364b8" fill-opacity="1.0" id="ele7dd16e3" stroke="#ffffff" stroke-opacity="1.0" stroke-width="0" symbology:type="Fluid"/>
			<path d="M207.5 117 Q206.48 118.71 203.73 118.71 Q201.98 118.71 199.5 118 L178.5 120 Q142.2 125.2 115.5 140 Q88.81 152.81 68.5 172 Q46 192.5 30 219.5 Q11.5 249 4 289.5 L2 308.5 Q3.3 313.3 1 314.5 L1.5 337 L2.5 349 L5 367.5 L13 395.5 Q22.4 423.11 38.5 444 L368 305.5 L444 273.5 L476.5 260 L492 252.5 L345 164.5 L322.5 151 L300.5 139 Q273 123.5 234.5 119 L207.5 117  Z " fill="#0078d4" fill-opacity="1.0" id="elc7b2181a" stroke="#ffffff" stroke-opacity="1.0" stroke-width="0" symbology:type="Fluid"/>
			<path d="M490.5 254 L39 444.5 L54 464.5 Q71.7 484.8 95 499.5 Q122.81 518.72 160.5 528 L182.5 532 Q184.95 531.35 186.7 531.35 Q189.47 531.35 190.5 533 L659.5 533 L681 532.5 L685.5 532 Q699 531 709.5 527 Q727.1 523.1 740.5 515 Q760.91 505.4 776.5 491 Q798.6 472.11 812 444.5 L575 302.5 L517 267.5 L502 258.5 L495.5 255 L490.5 254  Z " fill="#28a8ea" fill-opacity="1.0" id="elcb80c605" stroke="#ffffff" stroke-opacity="1.0" stroke-width="0" symbology:type="Fluid"/>
			<path d="M648.5 196 L648.5 196 L643.5 197 L635.5 198 L624 200.5 L606.5 206 L579.5 217 L519.5 242 L491 253.5 Q498.5 254 502 258.5 L519.5 269 L578.5 304 L812.5 444 Q825.3 423.8 830 395.5 L832 380.5 Q830.8 375.8 833 374.5 L832.5 354 L831 340.5 L828.5 327 Q826.1 312.4 820.5 301 L814 286.5 Q803.41 265.61 788 249.5 Q769.91 229.62 745 216.5 L728 208.5 L714 203.5 L707.5 202 Q700.5 198.5 690.5 198 L670 195 L648.5 196  Z " fill="#1d98e0" fill-opacity="1.0" id="el6f3e4a17" stroke="#ffffff" stroke-opacity="1.0" stroke-width="0" symbology:type="Fluid"/>
		</g>
	</svg>
	<text x="230" y="100" class="text">One Drive</text>		
	
	
	<svg id="oneHub" x="330" y="70" width="70" height="55" xmlns:xlink="http://www.w3.org/1999/xlink">    
		<g transform="scale(0.065)">        <path d="M369.5 2 L366.5 3 L360.5 3 L340.5 5 L323.5 7 L306.5 10 L285.5 15 L270 19.5 L233.5 33 L199.5 50 Q151.9 75.41 115.5 112 L110 118.5 L106.5 121 Q75.31 153.81 52 194.5 L40 217.5 L32 235.5 L27 247.5 L22 260.5 L14 286.5 L10 302.5 L6.5 321 L3.5 343 L3 349.5 L2 352.5 L2.5 354 L30 320.5 L46.5 305 L47 303.5 Q80.2 272.21 122.5 250 Q152.31 233.81 188.5 224 L211 218.5 L236.5 214 L252.5 212 L268.5 211 L283.5 210 Q293.4 191.4 306.5 176 L329 148.5 Q354.8 120.31 387 98.5 L414 81.5 L436 70.5 L451.5 64 L470.5 56 L493 49.5 L526.5 42 L548 38.5 L522 27.5 L505.5 21 L487.5 16 L467.5 11 L452.5 8 L438.5 6 L421.5 4 L402 2.5 L369.5 2  Z " fill="#91c698" fill-opacity="1.0" id="el1a7794ae" stroke="#ffffff" stroke-opacity="1.0" stroke-width="0" symbology:type="Fluid"/>
			<path d="M558.5 61 L555.5 62 L547.5 62 L524.5 66 L505.5 70 L489 74.5 L462.5 84 L446 91.5 Q420.74 102.7 399.5 118 L399 119.5 L396.5 120 L396 121.5 L391.5 124 L382 131.5 L365.5 145 L365 146.5 L362.5 148 L356 155.5 L354.5 156 L348 163.5 L346.5 164 L329 185.5 L327.5 186 L326 189.5 L324.5 190 L316 203.5 L314.5 204 L313 207.5 L310.5 211 L312.5 210 Q313.25 212.25 316.25 212.25 Q317.25 212.25 318.5 212 L326.5 213 L344 215.5 L368 220.5 Q420.93 233.12 461 258.5 L492 278.5 L514.5 296 L516 298.5 L523.5 304 L524 305.5 L531.5 312 L533 314.5 L539.5 320 L543 325.5 L546.5 328 L571 360.5 L572.5 361 L573.5 363 L588 332.5 L587 330.5 L588.5 330 L598 302.5 L602 286.5 L604 276.5 L606 263.5 L606 261.5 L608 250.5 L609 240.5 L610 235.5 L609.5 190 L608 169.5 Q604.5 168 607 166.5 L603.5 145 L600 131.5 L590 98.5 L574 62.5 L568.5 61  Z " fill="#78b442" fill-opacity="1.0" id="eld2819819" stroke="#ffffff" stroke-opacity="1.0" stroke-width="0" symbology:type="Fluid"/>
			<path d="M603.5 71 L612 93.5 L619 115.5 L626 143.5 L630 162.5 L632 183.5 L633 188.5 L632.5 234 L632 245.5 L629 269.5 L625 286.5 L622 299.5 L617 316.5 Q605.91 354.9 587 385.5 L601.5 415 L611 436.5 L622 472.5 L627 492.5 L630 511.5 L632 532.5 Q630.8 537.3 633 538.5 L632.5 584 L632 593.5 L631 598.5 L629.5 610 L627 625.5 L624 638.5 L619 657.5 L613.5 674 L604 699.5 L603.5 701 L614.5 694 L633.5 679 L634 677.5 L639.5 674 L640 672.5 L641.5 672 Q661.5 655.5 677 634.5 L678.5 634 L691.5 617 L707 594.5 Q719 578.5 727.5 559 L741 529.5 L750 503.5 Q753.8 498.3 754.5 490 L760 467.5 L764 446.5 L766.5 428 L768 407.5 L768 401.5 L769 398.5 L768 363.5 L767 348.5 L765 331.5 L759.5 302 L753.5 278 L744 249.5 L734.5 227 L726.5 211 Q706.72 170.81 679 138.5 L677.5 138 L670 128.5 L640.5 100 L640 98.5 L634.5 95 L634 93.5 L628.5 90 L628 88.5 L613.5 78 L603.5 71  Z " fill="#d8e631" fill-opacity="1.0" id="el14a13223" stroke="#ffffff" stroke-opacity="1.0" stroke-width="0" symbology:type="Fluid"/>
			<path d="M260.5 234 Q259.74 235.5 257.5 235.5 Q256.24 235.5 254.5 235 L237.5 237 L217 240.5 L204 243.5 L187.5 248 L175 252.5 Q150.4 260.4 130 272.5 Q96.5 290 69.5 314 L69 315.5 L52.5 330 Q27.81 354.8 9 385.5 Q28.63 419.42 56 445.5 L68.5 456 L69 457.5 Q96.5 482.5 131.5 500 Q169.81 522.72 221.5 532 L244.5 536 L254.5 537 L259.5 538 L271 537.5 Q262.71 524.3 258 507.5 L249 481.5 L240 440.5 L237 417.5 L237 409.5 L236 406.5 L236.5 365 L239.5 335 L248 293.5 L258 263.5 L270 234.5 L260.5 234  Z " fill="#57a687" fill-opacity="1.0" id="el398cfcb0" stroke="#ffffff" stroke-opacity="1.0" stroke-width="0" symbology:type="Fluid"/>
			<path d="M572.5 410 Q569.8 411.3 572 412.5 L570.5 413 Q567.5 413.5 568 417.5 L566.5 418 L562 425.5 L560.5 426 L555 433.5 L552 436.5 L552 438.5 L550.5 439 L544.5 445 L543 448.5 L541.5 449 L532 459.5 L517.5 472 L511 479.5 L509.5 479 L498.5 488 L498 489.5 L471.5 507 L470 509.5 L468.5 509 L466.5 510 L466 511.5 Q465.36 513.04 464.68 513.04 Q464.11 513.04 463.5 512 L454.5 517 L453 519.5 L451.5 519 Q433 531 409.5 538 Q404.11 542.6 394.5 543 L394 544.5 L375.5 549 Q374.65 551.05 373.75 551.05 Q373.15 551.05 372.5 550 L346.5 556 L344.5 556 L330 558.5 L317.5 560 L310 561.5 L312.5 563 L312 564.5 L321 577.5 L323.5 579 L323 580.5 L326.5 583 L326 584.5 L349 611.5 L350.5 612 L351 613.5 L355.5 616 L357 619.5 L360.5 621 L361 622.5 L367 628.5 L370.5 630 L371 631.5 L377.5 637 L380 639.5 L381.5 639 L382 640.5 Q393.11 651.41 407.5 659 Q408.4 661.05 409.25 661.05 Q409.9 661.05 410.5 660 L411 661.5 Q426.11 672.41 444.5 680 L469 690.5 L482.5 696 L494.5 699 L506.5 703 L507.05 703 Q515.29 703 520.5 706 L541.5 709 L556 710.5 L572.5 711 L583.5 689 L592 666.5 Q597.22 658.22 598 645.5 Q601.5 644 599 642.5 L601.5 636 L603.5 627 L606 613.5 L608 599.5 L609 588.5 Q611.8 582.3 610 571.5 Q608.5 566 611 564.5 L610 543.5 L609.5 533 L608 518.5 L602.5 487 L600 476.5 L598 470.5 L598 468.5 L591 447.5 Q587.5 446 590 444.5 L575 410.5 L572.5 410  Z " fill="#8cb74b" fill-opacity="1.0" id="el3fc7ef6e" stroke="#ffffff" stroke-opacity="1.0" stroke-width="0" symbology:type="Fluid"/>
			<path d="M2.5 417 L5 446.5 L8 461.5 L14 486.5 L20.5 508 L32 538.5 L42 559.5 Q63.12 602.41 93 636.5 L94.5 637 L102 646.5 L107.5 651 L108 652.5 L120.5 664 L121 665.5 Q153.12 696.91 194 719.5 Q224.31 738.22 261.5 750 L281.5 756 L301.5 761 L322.5 765 L337.5 767 L356.5 769 Q358.58 768.47 360.08 768.47 Q362.58 768.47 363.5 770 L406 769.5 L420 768.5 L447.5 765 L475 759.5 L498.5 753 L512 748.5 L528 742.5 L547.5 734 L548 732.5 L528.5 730 L506 725.5 L490 721.5 L475.5 717 Q448.8 708.72 426 696.5 Q391.24 678.8 362.5 655 L362 653.5 L344.5 639 L344 637.5 L342.5 637 L342 635.5 L335.5 630 L335 628.5 L333.5 628 L319 610.5 L317.5 610 Q298.4 588.1 284 561.5 L261 560.5 L250 559.5 L230.5 557 L219.5 555 Q197.9 551.6 179.5 545 L156 536.5 L123.5 522 Q76.63 497.42 40.5 462 L39 459.5 L37.5 459 L36 456.5 L34.5 456 L26 445.5 L24.5 445 L2.5 417  Z " fill="#cef1f5" fill-opacity="1.0" id="elc3635d6d" stroke="#ffffff" stroke-opacity="1.0" stroke-width="0" symbology:type="Fluid"/>
		</g>
	</svg>
	<text x="390" y="100" class="text">One Hub</text>	

	
	<svg id="pCloud" x="480" y="80" width="70" height="36" xmlns:xlink="http://www.w3.org/1999/xlink">    
		<g transform="scale(0.05)">        
			<path d="M529.12 248.87 Q527.91 248.87 526.5 249 L456.5 249 L456.5 302 L527.5 302 Q537.72 301.71 542.5 296 Q549.6 290.61 552 280.5 L551.5 270 L548 260.5 L536.5 251 Q533.91 248.87 529.12 248.87  Z M510.5 185 L537 185.5 Q551.41 186.62 561.5 192 Q580.3 199.7 593 213.5 L601 223.5 L607 233.5 L610 240.5 Q615.41 249.62 616.5 263 L617 288.5 Q610.3 321.8 589.5 341 L569.5 355 Q560.3 361.3 546.5 363 Q543.5 365.58 537.93 365.58 Q537 365.58 536 365.5 L517.5 366 L461.5 366 Q460.24 365.74 459.24 365.74 Q456.74 365.74 456 367.5 L456 399.5 Q457.21 422.71 444.5 432 L439 435.5 L435.5 437 L426 440.5 L415.5 441 Q401.9 438.11 394 429.5 Q383.5 419.5 385 397.5 L385 361.5 L385 214.5 Q388.21 198.7 399.5 191 L413.5 185  Z M475.5 90 Q474.74 91.49 472.5 91.49 Q471.24 91.49 469.5 91 L460.5 92 L453 92.5 L444.5 94 L425 98.5 Q401 104.5 382.5 116 Q355.11 129.12 334.5 149 Q313.71 168.7 298 193.5 L282 225.5 L277 238.5 L272.5 256 L269 274.5 L268 284.5 L267 289.5 L267.5 319 L270 339.5 L273 353.5 Q277 374 285.5 390 Q293.3 410.21 306 425.5 L323 447.5 Q343.71 469.8 370.5 486 Q388.11 497.4 409.5 505 L441.5 514 L457.5 516 L462.5 517 L469.5 517 L472.5 518 L500 517.5 L515.5 516 L543.5 511 L560.5 505 Q574.5 501.5 585.5 495 Q613 481.5 634.5 462 Q653.91 444.9 668.5 423 Q683.41 402.4 692.5 376 Q700.22 358.21 703 335.5 L704 326.5 L705 321.5 L705 294.5 L704 281.5 L700 256.5 Q685.6 199.4 651 162.5 Q626.72 134.81 592.5 117 L566.5 105 L544.5 98 L527.5 94 L514.5 92 L503.5 91 L497 90.5 L475.5 90  Z M467.5 59 L506 59.5 L522.5 61 L536.5 64 L546.5 66 L561.5 70 L582.5 77 L608.5 90 Q646.6 109.92 674 140.5 Q698.72 166.81 715 201.5 L725 226.5 L730 241.5 L735 267.5 L736.5 277 L737.5 292 L738 316.5 Q735.8 317.8 737 322.5 L736 333.5 L732 356.5 L726 379.5 Q719 402.5 708 421.5 Q688.5 456 660.5 482 Q634 507 599.5 524 L583.5 531 Q568.5 538.5 549.5 542 L531.5 546 L508.5 549 L502 549.5 L470.5 550 Q469.74 548.6 467.46 548.6 Q466.21 548.6 464.5 549 L440.5 546 Q390.61 536.91 354.5 514 Q319.61 493.4 294 463.5 Q272.8 440.21 259 409.5 Q247.31 388.71 241.5 362 L237.5 342 L235 320.5 L235 309.5 L234 304.5 L235 301.5 L235 292.5 L235.5 282 L237 270.5 L238 266.5 Q240.81 240.81 249.5 221 Q256.9 197.4 270 179.5 Q277.71 164.2 289 152.5 L300 139.5 L319.5 120 Q340.8 100.81 368 87.5 Q398.3 70.81 437.5 63 L453.5 61 L457.5 60 L463.5 60 L467.5 59  Z M469.5 0 Q468.58 1.58 466.08 1.58 Q464.58 1.58 462.5 1 L448 2.5 L426.5 6 L404.5 11 Q371.71 19.21 345.5 34 Q304.8 53.8 273.5 83 Q239.31 114.81 215 156.5 Q202.7 177.7 194 202.5 Q186.4 220.4 183 242.5 L180 256.5 L178.5 266 L177.5 276 L177 293.5 L176 293.5 L176.5 270 L178 248.5 L182 227.5 L186.5 209 Q192.62 182.62 204 161.5 L203.5 160 L185 163.5 Q168 166 154.5 172 Q134.62 178.12 118.5 188 Q97 199.5 79.5 215 Q58.82 232.81 43 255.5 Q28.71 273.71 20 297.5 Q14.32 306.3 12 318.5 L8 332.5 L5 345.5 L3 361.5 L2 366.5 L2.5 401 L3 410.5 L9 441.5 Q14.4 463.11 24 480.5 Q38.91 512.6 62 536.5 Q86.31 563.72 120.5 581 L146.5 594 Q166.4 602.6 191.5 606 L202.5 608 L213.5 609 L218.5 610 L802.5 610 L829 609.5 L842.5 608 L857.5 605 Q872.5 602 884.5 596 Q906 586.5 922.5 572 Q938.72 558.72 950 540.5 Q964.22 522.22 970 495.5 L975 473.5 L975 449.5 L973.5 435 Q971.41 416.11 964.5 402 Q955.8 378.71 941 361.5 L917.5 339 L899 365.5 Q883.91 382.9 862.5 394 L861 393.5 L874.5 384 Q901 362.5 913.5 327 L916 318.5 L918 307.5 L920 298.5 L920 280.5 L919 270.5 L916 253.5 Q911.72 237.31 904 224.5 L885 199.5 Q872.91 186.62 856.5 178 L840.5 170 L820.5 163 L803.5 160 L773 160.5 Q782.72 178.31 788.5 200 L797 233.5 L800 254.5 L800 261.5 L801 264.5 L800.5 284 L798 260.5 L794.5 242 L790.5 225 L784 205.5 Q776 180.5 764 159.5 Q746.22 127.31 722 101.5 Q665.41 37.6 571.5 11 Q560.1 6.41 545.5 5 L530 2.5 L514.5 1 L497.5 0  Z " fill="#1ebcc5" fill-opacity="1.0" id="el8fc660b2" stroke="#ffffff" stroke-opacity="1.0" stroke-width="0" symbology:type="Fluid"/>
		</g>
	</svg>
	<text x="540" y="100" class="text">P Cloud</text>
	
	
	<svg id="weTransfer" x="630" y="84" width="70" height="30" xmlns:xlink="http://www.w3.org/1999/xlink">    
		<g transform="scale(0.045)">        
			<path d="M847.22 0 L847.22 0 L847.22 0 L847.22 0 L847.22 0 L847.22 0 L847.22 0 L847.22 0 L847.22 0 L847.22 0 L847.22 0 L847.22 0 L847.22 0 L847.22 0 L847.22 0 L847.22 0 L847.22 0 L847.22 0 L839.73 1.9 Q797.29 6.49 766 20.54 Q632.22 74.45 619.29 235.2 Q624.66 485.46 880.35 499.49 Q1010.91 499.49 1065.91 430.46 Q1098.24 365.74 1056.19 351.71 Q1045.42 345.24 1017.35 359.25 Q933.22 401.33 859.85 356.02 Q813.47 327.99 825.31 262.18 Q840 272 867.41 281.58 Q1054.04 329.05 1080.98 158.59 Q1081.07 122.82 1075.61 110.06 Q1068.94 88.31 1053.45 70.02 Q1026.04 34.94 979.73 18.71 Q941.85 2.2 898.68 0  Z M240.65 0 L181.28 3.25 L149.98 5.41 Q59.37 10.79 27.89 29.91 Q12.25 38.5 4.37 65.1 Q-0.6 94.24 3.65 125.09 Q10.57 203.98 42.8 318.06 L53.07 346.24 L82.95 426.49 L99.75 463.83 L112.81 484.36 Q123.67 495.96 141.75 500.21 L162.28 500.21 L173.48 498.36 L194 489.02 Q214.75 470.53 227.59 444.21 Q252.37 399.28 279.02 366.43 Q296.4 348.46 319.05 360.24 Q338.3 376.49 348.93 401.28 Q370.78 443.3 407.99 484.84 Q428.46 500.96 447.24 500.84 Q476.75 500.84 490.74 485.25 Q507.55 466.59 515.93 439.55 L540.22 376.11 L549.54 349.99 L566.31 293.99 L593.36 169.39 Q609.55 98.2 595.54 62.6 Q581.5 16.21 467.15 6.49 L431.02 3.79 L366.62 1 L240.65 0  Z " fill="#5badf9" fill-opacity="1.0" id="el926f57b1" stroke="#ffffff" stroke-opacity="1.0" stroke-width="0" symbology:type="Fluid"/>
		</g>
	</svg>
	<text x="700" y="100" class="text">We Transfer</text>
	
	</g>	
	</g>
</svg>
